<?xml version="1.0" standalone="no"?>
<!DOCTYPE svg PUBLIC "-//W3C//DTD SVG 1.1//EN" "http://www.w3.org/Graphics/SVG/1.1/DTD/svg11.dtd" >
<svg>
<metadata>
Created by FontForge 20120731 at Thu Jul 11 02:00:42 2019
 By www
Copyright (c) LDO Fonts, 2004. All rights reserved.
</metadata>
<defs>
<font id="WaukeganLDOExtended" horiz-adv-x="278" >
  <font-face 
    font-family="Waukegan LDO Extended"
    font-weight="400"
    font-stretch="normal"
    units-per-em="1000"
    panose-1="2 12 6 3 2 2 2 2 2 4"
    ascent="800"
    descent="-200"
    x-height="467"
    cap-height="667"
    bbox="0 -210 1409 857"
    underline-thickness="50"
    underline-position="-50"
    unicode-range="U+0020-FB02"
  />
<missing-glyph 
 />
    <glyph glyph-name=".notdef" 
 />
    <glyph glyph-name=".null" horiz-adv-x="0" 
 />
    <glyph glyph-name="nonmarkingreturn" 
 />
    <glyph glyph-name="space" unicode=" " 
 />
    <glyph glyph-name="dollar" unicode="$" horiz-adv-x="745" 
d="M409 602v-231q140 0 226.5 -25.5t86.5 -157.5q0 -122 -74 -153.5t-212 -33.5h-7h-6q-4 -1 -7 -1h-7v-75h-70v75q-142 0 -227.5 23t-88.5 162v23h93q0 -101 36.5 -123t156.5 -24h30v246q-122 0 -215 24.5t-93 145.5q0 123 75 156.5t207 33.5h26v62h70v-62q142 0 218 -27.5
t76 -159.5h-91q0 71 -21.5 96.5t-116.5 25.5h-65zM409 61q8 -1 16 -1h17q89 0 138 20.5t49 98.5q0 91 -48 108.5t-150 18.5h-22v-245zM339 603h-41q-80 0 -127 -14t-47 -93q0 -85 43.5 -105t131.5 -20h40v232z" />
    <glyph glyph-name="percent" unicode="%" horiz-adv-x="993" 
d="M601 171q0 77 23.5 121t132.5 44q104 0 155 -18.5t51 -111.5v-20.5t2 -20.5v-20.5v-20.5v-4.5v-4.5q-2 -22 -6 -42.5t-18 -36.5q-18 -22 -46.5 -29t-58.5 -8q-11 -1 -22.5 -1h-21.5q-101 0 -146 22t-45 117v34zM656 169v-62q4 -53 32 -62t77 -9h9h9q62 0 93.5 10.5
t31.5 65.5v110q0 55 -25 66t-72 11h-61h-8h-9q-16 -1 -32 -4t-25 -11q-11 -10 -15.5 -27.5t-5.5 -35.5v-5.5v-5.5v-11.5t1 -10.5v-10v-9zM806 667l-565 -667h-58l563 667h60zM27 504q0 77 23 121t133 44h64q81 0 112 -28.5t31 -96.5v-11v-11q-2 -5 -2 -10v-10v-10.5t2 -11.5
v-11v-12q0 -71 -34.5 -98.5t-130.5 -27.5q-107 0 -152.5 24t-45.5 115v34zM81 502l1 -62q1 -52 30.5 -61t83.5 -10h6h8q61 0 93 10.5t32 65.5v110q0 55 -25 66t-74 11h-61h-6h-7q-17 -1 -33.5 -4t-26.5 -11q-11 -10 -16 -26t-6 -33v-8.5v-8.5v-11t1 -10v-9.5v-8.5z" />
    <glyph glyph-name="ampersand" unicode="&#x26;" horiz-adv-x="849" 
d="M601 294h93v-14.5t1 -14.5v-14.5v-14.5q0 -11 -0.5 -22t-2.5 -22q-1 -11 -3 -22l-4 -22l146 -96l-52 -52l-123 81q-32 -55 -94.5 -69.5t-130.5 -16.5h-24h-23q-168 0 -261.5 27.5t-93.5 189.5v18.5t1 18.5q2 25 11 48.5t29 42.5q19 18 44.5 25t51.5 12h2t4.5 1t11 2
t15.5 3q-14 9 -25.5 17.5t-18.5 16.5q-19 17 -25 37t-6 53q0 104 69 128.5t178 24.5q121 0 182 -27.5t61 -134.5v-18t-2 -18h-91q-1 6 -1 12v12q-1 81 -32 95t-129 14q-57 0 -99.5 -10t-42.5 -66q0 -28 8.5 -46t26.5 -34q7 -6 15.5 -12.5t19.5 -13.5l313 -209q1 11 1.5 23
t0.5 24v10.5v11.5q-1 5 -1 10.5v10.5zM257 342q-11 -2 -22 -4.5t-20 -4.5q-53 -11 -73 -32t-20 -88q0 -94 31 -124.5t152 -30.5h81h32t33 2q44 3 82 16.5t49 50.5z" />
    <glyph glyph-name="quotesingle" unicode="'" horiz-adv-x="162" 
d="M114 400h-75v267h92z" />
    <glyph glyph-name="parenleft" unicode="(" horiz-adv-x="271" 
d="M253 673v-63q-91 0 -106.5 -34.5t-17.5 -89.5v-5.5v-5.5v-10.5v-11.5v-97l3 -271v-6v-7q1 -46 15 -80.5t89 -34.5h17v-63q-4 1 -7 1t-5 -1h-7h-7q-133 0 -161.5 65t-31.5 153q-1 18 -1.5 36.5t-0.5 36.5v36.5v36.5v166q0 110 31 179.5t190 69.5z" />
    <glyph glyph-name="parenright" unicode=")" horiz-adv-x="272" 
d="M18 -107v63q57 1 85.5 16t33.5 62q1 10 1.5 20t1.5 20v19v20q2 24 2 48v49l-4 271q0 52 -13 90.5t-91 38.5l-16 -1v63h7t7 1h5h7q133 0 159.5 -63t33.5 -151v-2.5v-2.5q1 -31 1.5 -61.5t0.5 -60.5v-61.5v-61.5v-67v-1.5v-1.5q0 -92 -25.5 -168.5t-173.5 -76.5z" />
    <glyph glyph-name="asterisk" unicode="*" horiz-adv-x="471" 
d="M458 523l-171 -49l103 -117l-49 -29l-104 121l-111 -121l-49 29l106 117l-170 52l22 47l171 -50v144h61v-144l170 51z" />
    <glyph glyph-name="plus" unicode="+" horiz-adv-x="574" 
d="M3 361h256v193h54v-193h258v-41h-258v-193h-54v193h-256v41z" />
    <glyph glyph-name="comma" unicode="," horiz-adv-x="179" 
d="M144 91v-98q0 -40 -15.5 -65t-70.5 -25h-7h-6q-2 1 -5 1h-7v36q32 2 43.5 12.5t11.5 36.5v6t-1 5h-42v91h99z" />
    <glyph glyph-name="hyphen" unicode="-" horiz-adv-x="369" 
d="M39 276h290v-65h-290v65z" />
    <glyph glyph-name="period" unicode="." horiz-adv-x="180" 
d="M138 91v-91h-99v91h99z" />
    <glyph glyph-name="slash" unicode="/" horiz-adv-x="716" 
d="M714 667l-645 -765h-67l642 765h70z" />
    <glyph glyph-name="zero" unicode="0" horiz-adv-x="780" 
d="M35 342q0 38 0.5 75t3.5 74q5 53 38 97.5t94 65.5q29 10 59.5 12.5t61.5 3.5q13 0 25 0.5t24 0.5h23h25q188 0 267.5 -36t87.5 -203v-23.5t1 -23.5v-24v-24q0 -34 -0.5 -68t-2.5 -69q-3 -94 -58 -145.5t-178 -56.5q-24 -2 -48 -2h-49l-67 -1q-121 1 -206 32.5t-96 144.5
q-4 30 -4.5 60t-0.5 61v49zM130 337l1 -125q3 -58 28.5 -101.5t110.5 -46.5q17 0 35.5 -0.5t35.5 -1.5h9.5h9.5q21 -1 43.5 -1.5t45.5 -0.5q100 0 150 27.5t50 133.5v116v108q0 102 -43.5 132.5t-169.5 30.5h-92q-90 0 -149 -18.5t-63 -113.5q-1 -17 -1.5 -34.5t-0.5 -34.5
v-35.5v-34.5z" />
    <glyph glyph-name="one" unicode="1" horiz-adv-x="400" 
d="M360 667v-667h-88v610l-213 -188l-59 44l230 201h130z" />
    <glyph glyph-name="two" unicode="2" horiz-adv-x="662" 
d="M635 62v-62h-600v124q0 122 75 150t198 38q5 0 9.5 0.5t9.5 0.5q14 1 26 2t23 2q91 7 129 29t38 115q0 100 -40 123t-160 23h-33t-33 -1l-34 -2t-33 -4q-60 -10 -72.5 -46t-12.5 -77v-4.5v-5.5l1 -29h-91q0 92 24 153t156 74q32 3 64 4.5t64 1.5q154 0 224 -37t70 -173
v-23t-1 -24q-3 -32 -14.5 -63t-44.5 -54q-37 -25 -84.5 -34t-97.5 -12q-12 -1 -23.5 -1.5t-23.5 -0.5q-88 -4 -155 -22.5t-67 -109.5v-14t1 -13q0 -7 0.5 -14t0.5 -14h507z" />
    <glyph glyph-name="three" unicode="3" horiz-adv-x="685" 
d="M271 309v64h27t27 1h26.5h26.5q103 1 132.5 21t29.5 101q0 56 -19.5 82.5t-93.5 29.5q-17 0 -34 0.5t-35 0.5h-34h-34h-17t-17 -1q-29 -1 -55 -6.5t-43 -18.5q-12 -12 -17 -27.5t-6 -31.5v-6.5v-7.5v-12v-12q-2 -6 -2 -12v-12h-87q0 119 50 165t199 46h40
q131 0 216.5 -21.5t85.5 -147.5v-22t-1 -23q-3 -21 -9.5 -41.5t-23.5 -37.5q-18 -19 -44 -26t-54 -11q-2 0 -4.5 -0.5t-4.5 -0.5q92 -10 124 -42t32 -106q0 -67 -23 -124t-127 -68q-41 -4 -82.5 -5.5t-82.5 -1.5q-134 0 -220.5 26t-86.5 156v20t1 20h91v-39q0 -58 21.5 -87
t102.5 -31q17 0 33.5 -0.5t33.5 -0.5t33.5 -0.5t33.5 -0.5q111 0 143.5 24t32.5 110q0 80 -39 98.5t-131 18.5h-115z" />
    <glyph glyph-name="four" unicode="4" horiz-adv-x="710" 
d="M565 667v-450h125v-63h-125v-154h-88v154h-472v88l420 425h140zM477 217v401l-393 -401h393z" />
    <glyph glyph-name="five" unicode="5" horiz-adv-x="672" 
d="M612 667v-65h-472v-201q27 29 68 40t84 14q18 1 34 1h33q148 0 218 -43t70 -169q0 -153 -53.5 -202t-249.5 -49q-149 0 -229.5 29.5t-80.5 168.5h92q0 -84 34.5 -108.5t135.5 -24.5h38q117 0 167 21.5t50 122.5q0 99 -24.5 143.5t-167.5 44.5h-47h-27.5t-29.5 -1
q-20 -2 -39 -5t-36 -10q-16 -7 -26 -19t-14 -26h-89v338h561z" />
    <glyph glyph-name="six" unicode="6" horiz-adv-x="690" 
d="M635 499h-92q0 38 -12.5 69.5t-68.5 37.5q-27 3 -54 3.5t-53 0.5h-30q-14 0 -28.5 -0.5t-29.5 -1.5q-36 -2 -68.5 -10t-47.5 -28q-8 -11 -11.5 -24t-4.5 -26q-2 -9 -2 -17v-16v-136q14 16 30.5 27.5t39.5 17.5q28 7 56.5 10t58.5 3q14 1 29 1h29q151 0 216 -35.5
t65 -166.5v-11.5v-11.5q-2 -66 -31.5 -122t-132.5 -63q-35 -3 -71 -3.5t-72 -0.5q-170 0 -242.5 43.5t-72.5 188.5l2 121v36.5v37.5q-1 19 -1 37.5v36.5q0 62 35 108t117 58q22 3 42.5 5t41.5 3q20 0 41.5 0.5t41.5 0.5q106 0 193.5 -20.5t87.5 -130.5v-5.5v-5.5t-0.5 -5.5
t-0.5 -5.5zM133 231q0 -103 31 -138t167 -35h41q104 0 147.5 19t43.5 107q0 101 -26 131.5t-166 30.5h-31q-15 0 -32.5 -0.5t-35.5 -1.5q-31 -2 -60 -7.5t-47 -17.5q-18 -11 -24 -27.5t-8 -33.5v-10v-10v-7z" />
    <glyph glyph-name="seven" unicode="7" horiz-adv-x="653" 
d="M630 667v-95l-404 -572h-111l437 604h-530v63h608z" />
    <glyph glyph-name="eight" unicode="8" horiz-adv-x="689" 
d="M513 347q92 -15 117 -48.5t25 -107.5q0 -67 -19.5 -118t-115.5 -69q-21 -4 -43.5 -5.5t-45.5 -2.5q-22 -1 -44.5 -1h-43.5q-167 0 -238 29t-71 171q0 74 27 106t117 46q-88 14 -111 47.5t-23 99.5q0 119 62.5 149t199.5 30h75q133 0 199 -29t66 -148q0 -67 -22.5 -100.5
t-110.5 -48.5zM128 189q0 -66 20.5 -96t112.5 -31q15 0 31 -0.5t32 -0.5q16 -1 31.5 -1h30.5q100 0 139 22t39 104q0 54 -19.5 86t-96.5 38q-27 2 -53.5 2h-54.5h-47q-77 0 -121 -16t-44 -90v-17zM139 500v-21v-11t1 -11q1 -20 9.5 -37.5t28.5 -26.5q17 -7 39.5 -10.5
t46.5 -5.5q16 -1 31.5 -1h29.5h59q81 0 124 17t43 88v27v14t-1 15q-1 16 -7.5 30.5t-21.5 23.5q-13 8 -39.5 12t-55.5 6q-17 1 -34 1h-31h-36q-15 0 -33 -0.5t-37 -1.5q-26 -1 -51 -5.5t-40 -13.5q-15 -10 -20 -24.5t-5 -30.5v-3.5v-3.5v-27z" />
    <glyph glyph-name="nine" unicode="9" horiz-adv-x="691" 
d="M34 170h89v-4v-4q-2 -2 -2 -4v-4q0 -52 28.5 -72.5t91.5 -22.5q17 0 32.5 -0.5t31.5 -0.5h30.5h32.5q110 0 151 22t41 113v125q-9 -13 -20.5 -23.5t-29.5 -15.5q-25 -8 -51 -12.5t-54 -5.5q-19 -1 -37.5 -1.5t-37.5 -0.5q-150 0 -220.5 32t-70.5 166q0 137 65.5 177
t224.5 40q166 0 244 -37t81 -186l2 -119v-129q0 -127 -63.5 -168.5t-223.5 -41.5l-55 -1q-113 1 -197 22t-84 136v5.5t1 4.5v4.5v5.5zM131 467q0 -88 31.5 -115.5t147.5 -27.5h29h36t38 1q17 1 36 3t36 5q55 11 65.5 39t10.5 65q0 100 -30.5 136t-164.5 36h-32
q-119 0 -161 -20.5t-42 -121.5z" />
    <glyph glyph-name="colon" unicode=":" horiz-adv-x="146" 
d="M138 91v-91h-99v91h99zM138 467v-91h-99v91h99z" />
    <glyph glyph-name="semicolon" unicode=";" horiz-adv-x="169" 
d="M135 91v-98q0 -40 -15.5 -65t-70.5 -25h-7h-6q-2 1 -5 1h-7v36q32 2 43.5 12.5t11.5 36.5v6t-1 5h-42v91h99zM129 467v-91h-99v91h99z" />
    <glyph glyph-name="less" unicode="&#x3c;" horiz-adv-x="565" 
d="M543 573v-78l-437 -160l437 -161v-77l-541 204v68z" />
    <glyph glyph-name="equal" unicode="=" horiz-adv-x="617" 
d="M39 291h568v-41h-568v41zM39 432h568v-41h-568v41z" />
    <glyph glyph-name="greater" unicode="&#x3e;" horiz-adv-x="583" 
d="M39 97v77l437 161l-437 161v77l541 -205v-67z" />
    <glyph glyph-name="question" unicode="?" horiz-adv-x="547" 
d="M281 91v-91h-98v91h98zM280 192h-91q0 65 17 95t78 53q7 2 16 5l18 6q15 4 27.5 8t22.5 8q47 17 62.5 40.5t15.5 76.5q0 91 -36.5 108t-143.5 17q-12 0 -26.5 -0.5t-28.5 -1.5q-23 -1 -45 -6t-36 -15q-16 -12 -21.5 -29.5t-7.5 -36.5v-8.5v-8.5v-45h-87q0 125 46 170
t204 45q132 0 201 -29.5t69 -151.5q0 -117 -44 -147.5t-97 -42.5q-2 -1 -3.5 -1.5t-3.5 -0.5q-23 -5 -45.5 -13t-41.5 -23q-10 -8 -14 -18t-5 -21v-8v-8v-17z" />
    <glyph glyph-name="at" unicode="@" horiz-adv-x="750" 
d="M496 471h60v-228v-2.5v-3.5q0 -4 0.5 -8t0.5 -8q1 -18 10 -33.5t37 -15.5q29 0 38.5 11t14.5 31q4 16 5.5 32t3.5 32q1 16 1.5 32t0.5 32q0 120 -30.5 162.5t-195.5 42.5h-80h-27.5t-27.5 -1q-28 0 -55.5 -2t-54.5 -6q-46 -7 -66 -26.5t-29 -54.5q-5 -22 -9 -44t-5 -45
q0 -14 -0.5 -29t-0.5 -30q0 -18 0.5 -43t3.5 -51q2 -30 9 -58.5t19 -46.5q17 -23 44.5 -34t57.5 -16q2 0 4 -0.5t3 -0.5q18 -2 35.5 -3.5t34.5 -2.5q18 0 35.5 -0.5t34.5 -0.5h58h20h21q27 1 53.5 3.5t46.5 7.5q11 2 19 8.5t13 13.5l43 -24q-10 -14 -26.5 -24.5t-37.5 -15.5
q-25 -6 -52.5 -8t-56.5 -3h-13h-14q-228 0 -318 39t-90 241v14q0 19 1 40.5t2 43.5q2 26 7 51.5t14 47.5q16 42 49.5 63t85.5 29q28 4 56.5 6.5t58.5 3.5q21 1 43 1h43h45.5t47.5 -1q30 -2 59.5 -5t54.5 -9q47 -12 71 -36t35 -62q9 -33 10.5 -66t1.5 -66q0 -32 -3 -64.5
t-9 -64.5q-8 -39 -28.5 -60.5t-70.5 -21.5h-4h-5q-31 1 -58.5 14t-33.5 40q-16 -30 -50.5 -42t-72.5 -14q-7 -1 -14 -1h-13q-110 0 -135 50t-25 124q0 79 29.5 123.5t139.5 44.5q38 0 74 -8.5t56 -37.5v44zM494 331q0 53 -23.5 77.5t-92.5 24.5h-14.5t-15.5 -1
q-21 -1 -41 -7t-30 -23q-8 -12 -11 -27t-4 -30v-13v-12v-23q0 -10 0.5 -22.5t1.5 -25.5q3 -16 8.5 -31.5t15.5 -26.5q11 -11 27.5 -14t33.5 -4h7h7q89 0 109 27t21 88z" />
    <glyph glyph-name="A" unicode="A" horiz-adv-x="782" 
d="M602 141h-421l-64 -141h-100l304 667h134l311 -667h-99zM575 202l-185 410l-184 -410h369z" />
    <glyph glyph-name="B" unicode="B" horiz-adv-x="712" 
d="M39 0v667h401q111 0 163 -35t52 -130q0 -57 -18 -94.5t-89 -57.5q82 -18 107 -55.5t25 -102.5q0 -90 -45 -141t-171 -51h-425zM133 64h257q108 0 150.5 18.5t42.5 105.5q0 52 -21 86.5t-99 34.5h-30h-300v-245zM133 376h263q93 0 128 24t35 96q0 61 -27 83t-102 22h-297
v-225z" />
    <glyph glyph-name="C" unicode="C" horiz-adv-x="734" 
d="M608 226h92q0 -7 0.5 -15t0.5 -15q0 -8 1 -15.5t1 -15.5q0 -73 -43.5 -116t-140.5 -49q-34 -2 -67.5 -2.5t-67.5 -0.5l-116 -1q-172 9 -202 99.5t-31 196.5v7.5v7.5v13.5v13.5v104q0 95 42 154.5t171 70.5q20 2 40.5 3.5t40.5 2.5t40.5 1h40.5q168 0 220.5 -37.5
t60.5 -174.5h-92q0 75 -22.5 110t-126.5 35q-44 0 -88 -1t-88 -4q-93 -5 -117 -44.5t-24 -110.5v-12l1 -107v-35q0 -16 0.5 -33.5t1.5 -35.5q3 -33 9 -63t21 -52q15 -21 46.5 -30t66.5 -11q14 -1 27.5 -1.5t26.5 -0.5q40 0 79 0.5t78 3.5q55 4 85.5 21t33.5 64v18.5v19.5
q-1 9 -1 18.5v18.5z" />
    <glyph glyph-name="D" unicode="D" horiz-adv-x="762" 
d="M39 0v667h385q187 0 246 -72.5t59 -212.5v-64q0 -124 -42.5 -221t-238.5 -97h-409zM131 65h273h32t34 2q34 2 66 10.5t52 29.5q22 23 32 55t13 67q1 16 1.5 31.5t0.5 30.5v33q0 40 -1 79.5t-8 78.5q-12 77 -67 97.5t-136 20.5h-292v-535z" />
    <glyph glyph-name="E" unicode="E" horiz-adv-x="587" 
d="M131 600v-226h425v-63h-425v-247h443v-64h-535v667h535v-67h-443z" />
    <glyph glyph-name="F" unicode="F" horiz-adv-x="550" 
d="M134 600v-232h405v-63h-405v-305h-95v667h510v-67h-415z" />
    <glyph glyph-name="G" unicode="G" horiz-adv-x="759" 
d="M365 331h357q3 -18 3 -36v-36v-48q0 -76 -27.5 -138.5t-145.5 -72.5q-42 -3 -84.5 -4t-86.5 -1q-200 0 -273 47.5t-73 201.5v46t1 46v45v46q0 131 62 188t228 57h50t50 -1q25 0 50 -0.5t50 -0.5q108 -3 152 -47t44 -126v-25h-92q0 60 -19.5 94t-104.5 37q-42 2 -85.5 2.5
t-86.5 0.5q-133 0 -166 -32.5t-36 -150.5l-1 -87l1 -95q0 -60 16.5 -111.5t107.5 -62.5q16 -2 33 -3t33 -1q17 -1 33.5 -1h33.5h48q120 0 156.5 25.5t36.5 119.5v59h-265v65z" />
    <glyph glyph-name="H" unicode="H" horiz-adv-x="753" 
d="M714 667v-667h-95v308h-487v-308h-93v667h93v-295h487v295h95z" />
    <glyph glyph-name="I" unicode="I" horiz-adv-x="176" 
d="M134 667v-667h-95v667h95z" />
    <glyph glyph-name="J" unicode="J" horiz-adv-x="557" 
d="M519 666v-483q0 -101 -53 -144t-185 -43q-125 0 -201 25t-76 143v39.5t2 39.5h92v-57q0 -70 22.5 -97.5t116.5 -27.5q107 0 148.5 22.5t41.5 111.5v471h92z" />
    <glyph glyph-name="K" unicode="K" horiz-adv-x="750" 
d="M134 667v-291h83l340 291h124l-382 -323l427 -344h-128l-381 309h-83v-309h-95v667h95z" />
    <glyph glyph-name="L" unicode="L" horiz-adv-x="561" 
d="M137 667v-598h424v-69h-522v667h98z" />
    <glyph glyph-name="M" unicode="M" horiz-adv-x="991" 
d="M952 667v-667h-95v613l-315 -613h-95l-317 607v-607h-91v667h161l294 -571l295 571h163z" />
    <glyph glyph-name="N" unicode="N" horiz-adv-x="790" 
d="M751 667v-667h-152l-469 603v-603h-91v667h152l469 -609v609h91z" />
    <glyph glyph-name="O" unicode="O" horiz-adv-x="723" 
d="M35 322v39q0 136 34 224.5t237 88.5h41q169 0 255 -34t86 -191v-118.5t-2 -118.5q-4 -122 -63.5 -170.5t-216.5 -48.5h-9.5h-9.5h-9.5h-9.5q-10 1 -18.5 1h-17.5q-141 0 -214 35t-82 162q-1 33 -1 66v65zM130 325l1 -107q2 -97 38 -129t162 -32q141 0 200 23.5t62 145.5
q0 27 1 54.5t1 55.5v55.5v54.5q0 123 -54.5 144t-188.5 21h-31q-110 0 -148 -27t-41 -136z" />
    <glyph glyph-name="P" unicode="P" horiz-adv-x="669" 
d="M39 0v667h413q13 0 27 -1q31 -2 60.5 -8.5t52.5 -23.5q37 -26 50.5 -61t17.5 -73q0 -10 0.5 -20.5t0.5 -20.5q0 -12 -0.5 -24.5t-1.5 -25.5q-4 -28 -15.5 -54.5t-36.5 -46.5q-40 -32 -90.5 -38.5t-102.5 -7.5h-4q-10 0 -19.5 -0.5t-19.5 -0.5h-241v-261h-91zM130 326h222
q112 0 162 20t50 115q0 71 -22.5 106t-116.5 35h-21q-5 -1 -12 -1h-262v-275z" />
    <glyph glyph-name="Q" unicode="Q" horiz-adv-x="778" 
d="M723 114l-29 -50v0q-41 -40 -99 -52.5t-121 -14.5q-14 -1 -29 -1h-30q-166 0 -267 28.5t-111 188.5q-2 32 -2.5 63.5t-0.5 63.5q0 197 57 264t311 67h21h33.5t35.5 -1q30 -1 59 -4.5t54 -10.5q67 -18 96 -64.5t37 -98.5q2 -13 3 -25.5t1 -24.5v-107l1 -94v-15.5v-15.5
q-1 -23 -5 -46t-13 -45zM402 290l240 -127q1 7 2 13.5t1 13.5q2 6 2 12.5v13.5v43.5t1 43.5v43.5v43.5q0 24 -0.5 48t-3.5 47q-11 84 -58.5 102.5t-125.5 18.5h-93q-124 0 -181.5 -22t-57.5 -144v-50.5t1 -50.5l1 -106q2 -124 56 -148.5t196 -24.5h15h17q9 -1 17 -1h17
q12 0 26 0.5t28 1.5q32 2 63.5 11.5t52.5 30.5l-260 135z" />
    <glyph glyph-name="R" unicode="R" horiz-adv-x="715" 
d="M39 0v667h395q130 0 188 -43t58 -150q0 -67 -18.5 -113.5t-127.5 -62.5q72 -4 103.5 -38.5t31.5 -89.5v-170h-96v153q0 66 -38.5 91t-119.5 25h-284v-269h-92zM131 331h272q95 0 137.5 24.5t42.5 100.5q0 72 -22.5 108.5t-125.5 36.5h-304v-270z" />
    <glyph glyph-name="S" unicode="S" horiz-adv-x="694" 
d="M646 484h-92q-5 74 -35 98.5t-126 24.5h-45q-16 0 -36.5 -0.5t-43.5 -1.5q-26 -2 -51 -6t-41 -12q-20 -10 -29.5 -27t-12.5 -35q-1 -8 -1.5 -16t-0.5 -15q0 -55 22 -83.5t102 -32.5q27 -2 53.5 -2.5t52.5 -0.5q124 -2 212 -25.5t88 -154.5q0 -76 -28 -130.5t-142 -63.5
q-20 -1 -40 -1.5t-39 -1.5q-20 -1 -40 -1h-40q-130 0 -215 26.5t-85 152.5v8t1 8q0 4 1 8t1 8h90q0 -91 31.5 -119t146.5 -28h79q104 0 144 20.5t40 105.5q0 67 -24.5 89t-105.5 25q-19 1 -37.5 1.5t-37.5 0.5q-131 4 -227.5 29t-96.5 158q0 121 77.5 151t207.5 30h23
q130 0 215 -24.5t85 -152.5v-10z" />
    <glyph glyph-name="T" unicode="T" horiz-adv-x="656" 
d="M378 596v-596h-96v596h-272v71h635v-71h-267z" />
    <glyph glyph-name="U" unicode="U" horiz-adv-x="735" 
d="M603 667h94v-467q0 -103 -49 -150.5t-189 -51.5q-23 -1 -46.5 -1.5t-46.5 -0.5q-153 0 -241 29.5t-88 174.5v467h95v-467q0 -86 38 -112.5t143 -26.5h91q112 0 155.5 24t43.5 115v467z" />
    <glyph glyph-name="V" unicode="V" horiz-adv-x="760" 
d="M642 667h102l-295 -667h-135l-298 667h100l266 -607z" />
    <glyph glyph-name="W" unicode="W" horiz-adv-x="1295" 
d="M1269 667l-262 -667h-143l-218 600l-224 -600h-140l-256 667h96l229 -609l225 609h138l224 -609l234 609h97z" />
    <glyph glyph-name="X" unicode="X" horiz-adv-x="798" 
d="M747 667l-265 -322l286 -345h-111l-254 306l-259 -306h-115l298 345l-274 322h114l236 -285l234 285h110z" />
    <glyph glyph-name="Y" unicode="Y" horiz-adv-x="739" 
d="M727 667l-315 -388v-279h-93v279l-307 388h109l248 -312l247 312h111z" />
    <glyph glyph-name="Z" unicode="Z" horiz-adv-x="697" 
d="M663 667v-71l-525 -530h536v-66h-650v66l522 530h-507v71h624z" />
    <glyph glyph-name="bracketleft" unicode="[" horiz-adv-x="263" 
d="M39 667h212v-57h-120v-653h120v-57h-212v767z" />
    <glyph glyph-name="backslash" unicode="\" horiz-adv-x="716" 
d="M2 667h70l642 -765h-67z" />
    <glyph glyph-name="bracketright" unicode="]" horiz-adv-x="263" 
d="M223 -100h-212v57h120v652h-120v58h212v-767z" />
    <glyph glyph-name="asciicircum" unicode="^" horiz-adv-x="582" 
d="M109 374h-92l218 294h111l218 -294h-93l-181 241z" />
    <glyph glyph-name="underscore" unicode="_" horiz-adv-x="703" 
d="M39 -72h625v-51h-625v51z" />
    <glyph glyph-name="grave" unicode="`" horiz-adv-x="226" 
d="M51 660l165 -100l-29 -36l-180 88z" />
    <glyph glyph-name="a" unicode="a" horiz-adv-x="571" 
d="M141 332h-90q0 97 66 116.5t165 19.5q121 0 186.5 -27t65.5 -137v-304h-81l4 48q-38 -38 -88.5 -46.5t-107.5 -8.5q-108 0 -169 25.5t-61 121.5q0 93 64 117t163 24q14 0 29 -0.5t30 -1.5q22 -1 44 -4.5t42 -9.5q14 -4 24 -12.5t17 -19.5v56q0 86 -30 107t-137 21
q-10 0 -24 -0.5t-26 -1.5q-19 -1 -35 -5t-28 -11t-17 -17.5t-6 -22.5q-2 -3 -2 -6.5v-6.5v-6.5t2 -7.5zM121 148q0 -61 31 -80.5t104 -19.5h26t27 1q53 2 96.5 18.5t43.5 68.5q0 63 -47.5 77t-113.5 14h-21h-23.5t-25.5 -1q-21 -2 -41.5 -6.5t-34.5 -14.5q-10 -6 -14.5 -16
t-5.5 -21q-1 -5 -1 -10v-10z" />
    <glyph glyph-name="b" unicode="b" horiz-adv-x="556" 
d="M39 0v667h87v-259q21 35 61.5 48.5t85.5 16.5q8 1 15.5 1h14.5q156 0 198.5 -59.5t42.5 -172.5q0 -108 -36 -176.5t-201 -68.5h-4.5h-4.5q-51 1 -99 13.5t-78 48.5l5 -59h-87zM128 247v-26q0 -85 25.5 -126.5t145.5 -41.5q72 0 105.5 19t42.5 78q4 23 5 45.5t1 45.5
q0 85 -20.5 131t-144.5 46q-112 0 -136 -45t-24 -126z" />
    <glyph glyph-name="c" unicode="c" horiz-adv-x="565" 
d="M449 169h86q0 -108 -56 -140.5t-189 -32.5q-185 0 -221.5 60.5t-36.5 191.5q0 119 51 171.5t206 52.5q96 0 166 -24.5t70 -117.5v-4v-3q-1 -2 -1 -4v-4h-85q0 63 -32 82t-108 19q-116 0 -146 -29.5t-30 -129.5v-47q0 -79 22.5 -118.5t136.5 -39.5q97 0 132 18.5t35 98.5z
" />
    <glyph glyph-name="d" unicode="d" horiz-adv-x="555" 
d="M515 666v-666h-86l5 60q-32 -41 -81.5 -53.5t-108.5 -12.5q-159 0 -195.5 67.5t-36.5 178.5q0 101 38 166.5t182 65.5h27t29 -1q42 -3 82 -15.5t59 -47.5v258h86zM102 241v-25.5t1 -25.5q1 -18 3.5 -35t7.5 -33q14 -46 54 -59t92 -13q122 0 145.5 45.5t23.5 129.5
t-21 137.5t-150 53.5q-118 0 -137 -46.5t-19 -128.5z" />
    <glyph glyph-name="e" unicode="e" horiz-adv-x="575" 
d="M453 142h90q0 -103 -69 -125t-180 -22q-164 0 -212.5 50t-48.5 177q0 122 37.5 187t211.5 65q163 0 211.5 -44t49.5 -174v-35h-420q0 -78 20.5 -125t138.5 -47h23h27.5t30.5 2q19 1 36.5 5t29.5 11q13 7 17 18.5t6 23.5q1 4 1 9v9v15zM455 275q0 87 -25.5 116t-140.5 29
q-101 0 -133 -30t-32 -115h331z" />
    <glyph glyph-name="f" unicode="f" horiz-adv-x="351" 
d="M342 467v-57h-154v-410h-88v410h-89v57h89v69q0 81 46 110t141 29q8 0 14.5 -0.5t13.5 -0.5q6 0 13 -0.5t14 -0.5v-58q-16 2 -31.5 2h-32.5q-51 0 -70.5 -18.5t-19.5 -56.5v-75h154z" />
    <glyph glyph-name="g" unicode="g" horiz-adv-x="572" 
d="M534 466v-496q0 -108 -63 -142.5t-192 -34.5q-112 0 -170 26t-58 127l81 -1q4 -63 34 -79t103 -16q87 0 134.5 18t47.5 97v92q-24 -37 -68.5 -49t-91.5 -13q-8 -1 -16.5 -1h-16.5q-141 0 -184 60t-43 160q0 111 34 184.5t201 73.5q58 0 107 -12.5t81 -53.5l-3 60h83z
M122 234v-17q0 -79 21 -122.5t139 -43.5q69 0 111.5 21.5t48.5 80.5q2 20 3.5 40.5t1.5 40.5q0 82 -21.5 131t-143.5 49q-98 0 -129 -29.5t-31 -112.5v-38z" />
    <glyph glyph-name="h" unicode="h" horiz-adv-x="545" 
d="M125 667v-253q29 43 79 52.5t106 9.5q123 0 171.5 -36t48.5 -137v-303h-89v303v3.5v3.5q0 1 1 3t1 3q0 65 -32 84.5t-108 19.5q-110 0 -144 -35t-34 -118v-267h-86v667h86z" />
    <glyph glyph-name="i" unicode="i" horiz-adv-x="160" 
d="M123 467v-467h-89v467h89zM123 667v-77h-89v77h89z" />
    <glyph glyph-name="j" unicode="j" horiz-adv-x="203" 
d="M169 467v-510q0 -53 -22.5 -95t-103.5 -42q-10 0 -20 1t-20 3l-1 49q2 1 3.5 1h2.5t2.5 -0.5t2.5 -0.5q51 0 61 25t10 60v509h85zM172 667v-77h-89v77h89z" />
    <glyph glyph-name="k" unicode="k" horiz-adv-x="529" 
d="M128 667v-388h35l210 188h108l-249 -215l294 -252h-115l-248 225h-35v-225h-89v667h89z" />
    <glyph glyph-name="l" unicode="l" horiz-adv-x="170" 
d="M128 667v-667h-89v667h89z" />
    <glyph glyph-name="m" unicode="m" horiz-adv-x="948" 
d="M39 467h84v-70q28 44 80.5 60.5t110.5 16.5q10 0 19.5 -0.5t19.5 -0.5q47 -4 89 -20.5t58 -55.5q33 44 85.5 61t113.5 17q115 0 163 -38t48 -129v-308h-91v314q0 60 -27 81.5t-103 21.5q-13 0 -27 -1t-29 -3q-32 -4 -60.5 -15.5t-41.5 -34.5q-7 -13 -9.5 -28t-3.5 -29
v-10v-10v-13v-273h-89v308q-4 65 -27.5 86.5t-108.5 21.5q-98 0 -134 -38t-36 -110v-268h-84v467z" />
    <glyph glyph-name="n" unicode="n" horiz-adv-x="570" 
d="M39 467h81v-60q34 43 86.5 56.5t112.5 13.5q118 0 165.5 -36.5t47.5 -131.5v-309h-88v303q0 70 -27.5 93t-116.5 23q-84 0 -129 -31t-45 -102v-286h-87v467z" />
    <glyph glyph-name="o" unicode="o" horiz-adv-x="584" 
d="M33 246q0 119 44.5 174t204.5 55q168 0 218 -46.5t50 -178.5q0 -115 -31 -186t-211 -71q-156 0 -215.5 39t-59.5 170v44zM123 247v-39v-21.5t2 -22.5q2 -29 9.5 -55t23.5 -40q14 -10 34 -14t43 -5h9h9h40q77 0 117.5 17t45.5 83q1 14 1.5 27t0.5 27q2 13 2 26.5v26.5
q0 86 -20 123t-128 37h-19q-113 0 -141.5 -28t-28.5 -127v-15z" />
    <glyph glyph-name="p" unicode="p" horiz-adv-x="554" 
d="M39 466h86l-4 -59q34 40 81.5 53t104.5 13q158 0 196.5 -63.5t38.5 -173.5q0 -107 -35.5 -174.5t-189.5 -67.5h-7h-8q-52 1 -99.5 12.5t-77.5 48.5v-256h-86v667zM127 249v-35q0 -74 26 -118.5t134 -44.5q119 0 141.5 42.5t22.5 123.5v28q0 83 -20.5 126.5t-139.5 43.5
q-115 0 -139.5 -39.5t-24.5 -126.5z" />
    <glyph glyph-name="q" unicode="q" horiz-adv-x="559" 
d="M519 466v-666h-88v253q-20 -31 -58 -43t-79 -15q-12 -1 -23 -1.5t-22 -0.5q-158 0 -197.5 64.5t-39.5 174.5q0 105 39 172t191 67q59 0 108.5 -10.5t84.5 -51.5l-4 57h88zM104 244v-36q0 -80 26 -119.5t140 -39.5t136.5 48.5t22.5 123.5v9q0 94 -22 139.5t-151 45.5
q-109 0 -130.5 -48t-21.5 -123z" />
    <glyph glyph-name="r" unicode="r" horiz-adv-x="454" 
d="M39 467h85l-4 -54q26 35 68 50t92 15q89 0 129.5 -34t40.5 -104v-13.5t-1 -14.5h-85q1 8 1 17v18q0 43 -25.5 58t-76.5 15q-68 0 -102.5 -27t-34.5 -82v-25v-286h-87v467z" />
    <glyph glyph-name="s" unicode="s" horiz-adv-x="565" 
d="M516 346h-88q0 38 -15 54t-65 18q-24 1 -48 1h-49h-18.5t-19.5 -1q-19 -1 -36.5 -4t-30.5 -11q-12 -7 -15.5 -17t-4.5 -21v-8v-8q0 -43 16.5 -58.5t70.5 -17.5q16 -1 33 -1h33q97 -1 175.5 -19t78.5 -115q0 -102 -68.5 -123t-177.5 -21h-10h-10q-89 1 -162 21t-73 107
v6.5t1 6.5q0 3 0.5 6.5t0.5 6.5h88q0 -64 30.5 -82.5t106.5 -18.5h22q12 0 27 0.5t31 1.5q22 1 43 5t35 12q12 7 18 19t7 25q1 6 1 12v12q0 55 -35.5 64t-88.5 9h-2h-3q-7 1 -15 1h-17q-6 0 -12.5 0.5t-12.5 0.5q-90 3 -154.5 20.5t-64.5 105.5q0 9 0.5 18.5t2.5 19.5
q2 20 11 38.5t29 30.5q21 13 49.5 20t60.5 10q21 2 41.5 2.5t38.5 0.5h33t34 -1q68 -3 123.5 -24t55.5 -87v-4.5v-4.5q-1 -2 -1 -4v-4z" />
    <glyph glyph-name="t" unicode="t" horiz-adv-x="441" 
d="M408 466v-55h-225v-287q0 -40 15 -56.5t67 -16.5q59 0 71 23t12 60v31h82q0 -73 -27.5 -122t-138.5 -49q-98 0 -134 28t-36 102v287h-76v55h76v113h89v-113h225z" />
    <glyph glyph-name="u" unicode="u" horiz-adv-x="560" 
d="M520 467v-467h-81v62q-37 -45 -85.5 -56.5t-114.5 -11.5q-105 0 -153.5 39t-48.5 123v311h88v-311q0 -61 26.5 -83t106.5 -22q104 0 139 31t35 110v275h88z" />
    <glyph glyph-name="v" unicode="v" horiz-adv-x="546" 
d="M528 467l-195 -467h-122l-194 467h89l167 -414l160 414h95z" />
    <glyph glyph-name="w" unicode="w" horiz-adv-x="884" 
d="M857 467l-164 -467h-126l-126 417l-127 -417h-128l-159 467h90l134 -420l128 420h125l128 -420l134 420h91z" />
    <glyph glyph-name="x" unicode="x" horiz-adv-x="578" 
d="M523 467l-186 -224l208 -243h-106l-151 188l-151 -188h-105l211 243l-189 224h99l135 -171l132 171h103z" />
    <glyph glyph-name="y" unicode="y" horiz-adv-x="527" 
d="M514 467l-165 -494q-2 -6 -4 -13l-4 -14q-22 -59 -62.5 -107.5t-127.5 -48.5q-10 0 -21 1.5t-21 3.5v56q4 0 8.5 -0.5t8.5 -0.5q3 -1 7.5 -1h8.5q45 0 68 28.5t34 62.5q7 17 11 32.5t8 27.5h-31l-211 467h88l183 -416l132 416h90z" />
    <glyph glyph-name="z" unicode="z" horiz-adv-x="508" 
d="M55 467h421v-65l-349 -344h349v-58h-450v65l347 347h-318v55z" />
    <glyph glyph-name="braceleft" unicode="{" horiz-adv-x="350" 
d="M130 246q44 -19 56.5 -49t12.5 -67v-155q0 -55 25 -75t94 -21v-66q-109 1 -161.5 25t-52.5 125v159q0 35 -13 60t-60 36v59q44 10 58.5 34.5t14.5 57.5v175q0 84 52.5 110t143.5 26h8.5t9.5 -1v-68q-64 -1 -91.5 -20t-27.5 -73v-160q0 -38 -12 -65.5t-57 -46.5z" />
    <glyph glyph-name="bar" unicode="|" horiz-adv-x="179" 
d="M39 666h98v-833h-98v833z" />
    <glyph glyph-name="braceright" unicode="}" horiz-adv-x="321" 
d="M208 247q-43 20 -55.5 49.5t-12.5 66.5v155q0 56 -26 76t-93 21v65q108 0 161 -22t53 -127v-160q0 -35 13 -60t60 -36v-59q-44 -10 -58.5 -34.5t-14.5 -57.5v-175q0 -82 -50.5 -108.5t-145.5 -26.5h-4.5h-4.5q-2 0 -4 0.5t-5 0.5v67q64 2 91.5 21t27.5 73v159
q0 38 12 65.5t56 46.5z" />
    <glyph glyph-name="asciitilde" unicode="~" horiz-adv-x="658" 
d="M83 261l-53 33q25 42 66.5 77t103.5 35q36 0 68.5 -11.5t64.5 -24.5q0 -1 1 -1t1 -1q31 -13 62.5 -24t66.5 -11t59.5 18.5t41.5 41.5q4 4 6.5 7.5t4.5 7.5l53 -33q-1 -1 -2 -2.5t-2 -3.5q-25 -39 -67.5 -72.5t-101.5 -33.5q-36 0 -68.5 11.5t-64.5 24.5
q-28 13 -56.5 23.5t-61.5 13.5q-46 0 -73.5 -22.5t-48.5 -52.5z" />
    <glyph glyph-name="Euro" unicode="&#x20ac;" horiz-adv-x="876" 
d="M748 226h92q0 -7 0.5 -15t0.5 -15q0 -8 1 -15.5t1 -15.5q0 -73 -43.5 -116t-140.5 -49q-34 -2 -67.5 -2.5t-67.5 -0.5l-116 -1q-172 9 -202 99.5t-31 196.5v7.5v7.5v13.5v13.5v104q0 95 42 154.5t171 70.5q20 2 40.5 3.5t40.5 2.5t40.5 1h40.5q168 0 220.5 -37.5
t60.5 -174.5h-92q0 75 -22.5 110t-126.5 35q-44 0 -88 -1t-88 -4q-93 -5 -117 -44.5t-24 -110.5v-12l1 -107v-35q0 -16 0.5 -33.5t1.5 -35.5q3 -33 9 -63t21 -52q15 -21 46.5 -30t66.5 -11q14 -1 27.5 -1.5t26.5 -0.5q40 0 79 0.5t78 3.5q55 4 85.5 21t33.5 64v18.5v19.5
q-1 9 -1 18.5v18.5zM16 280h623v-40h-623v40zM16 418h623v-41h-623v41z" />
    <glyph glyph-name="quotesinglbase" unicode="&#x201a;" horiz-adv-x="179" 
d="M144 91v-98q0 -40 -15.5 -65t-70.5 -25h-7h-6q-2 1 -5 1h-7v36q32 2 43.5 12.5t11.5 36.5v6t-1 5h-42v91h99z" />
    <glyph glyph-name="florin" unicode="&#x192;" horiz-adv-x="599" 
d="M375 443l-97 -439q-18 -79 -56 -108.5t-147 -29.5h-17.5t-17.5 1q-9 0 -17.5 1t-17.5 2l13 56q16 -1 31.5 -2t31.5 -1q57 0 77.5 17.5t29.5 58.5l98 444h-113l12 57h114l22 103q19 80 60.5 109t139.5 29h18.5t18.5 -1q8 0 17.5 -0.5t18.5 -0.5l-13 -57q-16 1 -31.5 1.5
t-31.5 0.5q-58 0 -77.5 -16.5t-29.5 -58.5l-23 -109h153l-12 -57h-154z" />
    <glyph glyph-name="quotedblbase" unicode="&#x201e;" horiz-adv-x="362" 
d="M149 91v-98q0 -40 -16 -65t-71 -25h-6.5h-5.5q-3 1 -6 1h-7v36q33 2 44 12.5t11 36.5v6t-1 5h-41v91h99zM324 91v-98q0 -40 -16 -65t-71 -25h-6.5h-5.5q-3 1 -6 1h-7v36q33 2 44 12.5t11 36.5v6t-1 5h-41v91h99z" />
    <glyph glyph-name="ellipsis" unicode="&#x2026;" horiz-adv-x="675" 
d="M138 91v-91h-99v91h99zM387 91v-91h-99v91h99zM636 91v-91h-99v91h99z" />
    <glyph glyph-name="dagger" unicode="&#x2020;" horiz-adv-x="486" 
d="M289 667v-184h193v-58h-193v-605h-91v605h-194v58h194v184h91z" />
    <glyph glyph-name="daggerdbl" unicode="&#x2021;" horiz-adv-x="489" 
d="M290 667v-210h193v-58h-193v-301h193v-58h-193v-220h-91v220h-194v58h194v301h-194v58h194v210h91z" />
    <glyph glyph-name="circumflex" unicode="&#x2c6;" horiz-adv-x="436" 
d="M359 612l48 -24q0 -1 -1 -1.5t-2 -1.5q-19 -24 -46.5 -44t-65.5 -20q-22 0 -42 6t-38 13q-2 0 -3 0.5t-2 1.5q-19 6 -37 11.5t-38 5.5q-19 0 -29.5 -9.5t-19.5 -21.5q-1 -1 -2 -2.5t-2 -2.5l-50 22q16 24 39.5 44.5t60.5 22.5q23 0 43 -6t40 -13q18 -8 38 -14t43 -6
q20 0 35 10t25 22l3.5 3.5t2.5 3.5z" />
    <glyph glyph-name="perthousand" unicode="&#x2030;" horiz-adv-x="1427" 
d="M604 171q0 77 23.5 121t132.5 44q104 0 155 -18.5t51 -111.5v-20.5t2 -20.5v-20.5v-20.5v-4.5v-4.5q-2 -22 -6 -42.5t-18 -36.5q-18 -22 -46.5 -29t-58.5 -8q-11 -1 -22.5 -1h-21.5q-101 0 -146 22t-45 117v34zM659 169v-62q4 -53 32 -62t77 -9h9h9q62 0 93.5 10.5
t31.5 65.5v110q0 55 -25 66t-72 11h-61h-8h-9q-16 -1 -32 -4t-25 -11q-11 -10 -15.5 -27.5t-5.5 -35.5v-5.5v-5.5v-11.5t1 -10.5v-10v-9zM1046 171v10v11q-1 1 -1 3v4v7v7q0 69 39 96t117 27q100 0 154 -18t54 -108v-10.5v-10.5q-1 -5 -1 -10v-10v-10.5t1 -11.5v-11v-12
v-4.5v-4.5q-1 -22 -5.5 -42.5t-18.5 -36.5q-17 -22 -46 -29t-59 -8q-11 -1 -22.5 -1h-21.5l-26 -1q-90 1 -127 25.5t-37 114.5v34zM1100 169l1 -62q2 -28 14.5 -48.5t52.5 -21.5l60 -1q65 0 95 10.5t30 65.5v114q0 52 -25 62.5t-73 10.5h-61h-7.5h-8.5q-17 -1 -33 -4
t-25 -11q-11 -10 -15.5 -27.5t-5.5 -35.5v-5.5v-5.5v-11.5t1 -10.5v-10v-9zM809 667l-565 -667h-58l563 667h60zM30 504q0 77 23 121t133 44h64q81 0 112 -28.5t31 -96.5v-11v-11q-2 -5 -2 -10v-10v-10.5t2 -11.5v-11v-12q0 -71 -34.5 -98.5t-130.5 -27.5q-107 0 -152.5 24
t-45.5 115v34zM84 502l1 -62q1 -52 30.5 -61t83.5 -10h6h8q61 0 93 10.5t32 65.5v110q0 55 -25 66t-74 11h-61h-6h-7q-17 -1 -33.5 -4t-26.5 -11q-11 -10 -16 -26t-6 -33v-8.5v-8.5v-11t1 -10v-9.5v-8.5z" />
    <glyph glyph-name="Scaron" unicode="&#x160;" horiz-adv-x="679" 
d="M639 484h-92q-5 74 -35 98.5t-126 24.5h-45q-16 0 -36.5 -0.5t-43.5 -1.5q-26 -2 -51 -6t-41 -12q-20 -10 -29.5 -27t-12.5 -35q-1 -8 -1.5 -16t-0.5 -15q0 -55 22 -83.5t102 -32.5q27 -2 53.5 -2.5t52.5 -0.5q124 -2 212 -25.5t88 -154.5q0 -76 -28 -130.5t-142 -63.5
q-20 -1 -40 -1.5t-39 -1.5q-20 -1 -40 -1h-40q-130 0 -215 26.5t-85 152.5v8t1 8q0 4 1 8t1 8h90q0 -91 31.5 -119t146.5 -28h79q104 0 144 20.5t40 105.5q0 67 -24.5 89t-105.5 25q-19 1 -37.5 1.5t-37.5 0.5q-131 4 -227.5 29t-96.5 158q0 121 77.5 151t207.5 30h23
q130 0 215 -24.5t85 -152.5v-10zM336 708l-191 96l26 37l165 -60l173 60l23 -37z" />
    <glyph glyph-name="guilsinglleft" unicode="&#x2039;" horiz-adv-x="260" 
d="M156 511l64 -31l-131 -223l146 -225l-61 -32l-168 257z" />
    <glyph glyph-name="OE" unicode="&#x152;" horiz-adv-x="1208" 
d="M743 596v-218h421v-67h-421v-242h440v-66h-530v66q-27 -36 -73.5 -51.5t-96.5 -19.5q-15 -1 -30 -1.5t-30 -0.5q-185 0 -286 36.5t-101 208.5v18t2 18v17.5v16.5v110q1 155 78.5 201.5t259.5 46.5h40t42 -1q20 -1 40 -2.5t40 -4.5q40 -7 67.5 -21.5t47.5 -43.5v68h530
v-68h-440zM383 60q141 0 200.5 22t62.5 143v103l3 102q0 116 -47.5 144t-185.5 28h-88q-134 0 -165.5 -45.5t-31.5 -150.5v-34.5v-34.5q-1 -18 -1 -35.5v-34.5q0 -86 22 -143.5t152 -62.5q20 -1 39.5 -1h39.5z" />
    <glyph glyph-name="Zcaron" unicode="&#x17d;" horiz-adv-x="682" 
d="M659 667v-71l-525 -530h536v-66h-650v66l522 530h-507v71h624zM342 708l-191 96l26 37l165 -60l173 60l24 -37z" />
    <glyph glyph-name="quoteleft" unicode="&#x2018;" horiz-adv-x="179" 
d="M34 491v98q0 41 15.5 66t70.5 25h7h6q2 -1 5 -1h7v-38q-31 -1 -43 -11.5t-12 -35.5v-3t1 -3v-3.5v-3.5h42v-90h-99z" />
    <glyph glyph-name="quoteright" unicode="&#x2019;" horiz-adv-x="180" 
d="M144 667v-98q0 -40 -15.5 -65.5t-70.5 -25.5h-7t-6 1h-5h-7v37q32 2 43.5 12.5t11.5 35.5v6t-1 6h-42v91h99z" />
    <glyph glyph-name="quotedblleft" unicode="&#x201c;" horiz-adv-x="361" 
d="M37 491v98q0 41 16 66t71 25h6.5h5.5q3 -1 6 -1h7v-38q-32 -1 -43.5 -11.5t-11.5 -35.5v-3t1 -3v-3.5v-3.5h41v-90h-99zM212 491v98q0 41 16 66t71 25h6.5h5.5q3 -1 6 -1h7v-38q-32 -1 -43.5 -11.5t-11.5 -35.5v-3t1 -3v-3.5v-3.5h41v-90h-99z" />
    <glyph glyph-name="quotedblright" unicode="&#x201d;" horiz-adv-x="362" 
d="M149 667v-98q0 -40 -16 -65.5t-71 -25.5h-6.5t-5.5 1h-6h-7v37q33 2 44 12.5t11 35.5v6t-1 6h-41v91h99zM324 667v-98q0 -40 -16 -65.5t-71 -25.5h-6.5t-5.5 1h-6h-7v37q33 2 44 12.5t11 35.5v6t-1 6h-41v91h99z" />
    <glyph glyph-name="bullet" unicode="&#x2022;" horiz-adv-x="298" 
d="M28 286q0 40 35 68t85 28q51 0 86.5 -28t35.5 -68t-35.5 -68t-86.5 -28q-50 0 -85 28t-35 68z" />
    <glyph glyph-name="endash" unicode="&#x2013;" horiz-adv-x="745" 
d="M39 276h667v-65h-667v65z" />
    <glyph glyph-name="emdash" unicode="&#x2014;" horiz-adv-x="949" 
d="M39 276h871v-65h-871v65z" />
    <glyph glyph-name="tilde" unicode="&#x2dc;" horiz-adv-x="425" 
d="M214 654l192 -95l-27 -38l-165 61l-172 -61l-24 38z" />
    <glyph glyph-name="trademark" unicode="&#x2122;" horiz-adv-x="1109" 
d="M264 619v-352h-69v352h-168v48h403v-48h-166zM1070 667v-400h-68v346l-188 -346h-65l-189 343v-343h-66v400h108l178 -330l180 330h110z" />
    <glyph glyph-name="scaron" unicode="&#x161;" horiz-adv-x="556" 
d="M512 346h-88q0 38 -15 54t-65 18q-24 1 -48 1h-49h-18.5t-19.5 -1q-19 -1 -36.5 -4t-30.5 -11q-12 -7 -15.5 -17t-4.5 -21v-8v-8q0 -43 16.5 -58.5t70.5 -17.5q16 -1 33 -1h33q97 -1 175.5 -19t78.5 -115q0 -102 -68.5 -123t-177.5 -21h-10h-10q-89 1 -162 21t-73 107
v6.5t1 6.5q0 3 0.5 6.5t0.5 6.5h88q0 -64 30.5 -82.5t106.5 -18.5h22q12 0 27 0.5t31 1.5q22 1 43 5t35 12q12 7 18 19t7 25q1 6 1 12v12q0 55 -35.5 64t-88.5 9h-2h-3q-7 1 -15 1h-17q-6 0 -12.5 0.5t-12.5 0.5q-90 3 -154.5 20.5t-64.5 105.5q0 9 0.5 18.5t2.5 19.5
q2 20 11 38.5t29 30.5q21 13 49.5 20t60.5 10q21 2 41.5 2.5t38.5 0.5h33t34 -1q68 -3 123.5 -24t55.5 -87v-4.5v-4.5q-1 -2 -1 -4v-4zM277 522l-192 96l27 37l165 -60l172 60l24 -37z" />
    <glyph glyph-name="guilsinglright" unicode="&#x203a;" horiz-adv-x="260" 
d="M104 511l150 -254l-169 -257l-60 32l145 225l-131 223z" />
    <glyph glyph-name="oe" unicode="&#x153;" horiz-adv-x="1000" 
d="M964 226h-413v-6.5v-6.5q-1 -3 -1 -6.5v-6.5q0 -75 22.5 -112t127.5 -37h32q70 0 108.5 15t38.5 76h86q0 -97 -59 -122t-174 -25l-7 -1q-15 1 -30.5 1t-32.5 1q-47 2 -91 14t-67 49q-22 -39 -65 -51t-90 -14q-13 -1 -25.5 -1h-24.5q-90 0 -163.5 20t-90.5 104
q-5 31 -7.5 61.5t-2.5 61.5q0 128 45 180.5t215 52.5h29t30 -1q26 -1 51 -5t49 -12q21 -7 33 -19.5t17 -29.5q20 36 61 49.5t86 16.5q16 1 31 1.5t30 0.5q137 0 194.5 -39t57.5 -152v-57zM126 239v-30q0 -90 23 -125.5t141 -35.5h11q11 0 27 0.5t32 1.5q21 3 40.5 8t29.5 15
q14 13 20 36.5t9 49.5q1 13 1 25.5v23.5v35q0 13 -0.5 30.5t-2.5 35.5q-2 25 -9 48.5t-21 35.5q-11 11 -31.5 15t-43.5 5q-7 1 -14.5 1h-15.5h-55h-17.5t-18.5 -1q-24 -1 -45 -6.5t-32 -18.5q-12 -12 -17.5 -33.5t-7.5 -44.5q-2 -17 -2.5 -33t-0.5 -28v-10zM876 284
q-4 80 -26.5 107t-135.5 27q-103 0 -133.5 -27t-31.5 -107h327z" />
    <glyph glyph-name="zcaron" unicode="&#x17e;" horiz-adv-x="497" 
d="M57 467h421v-65l-349 -344h349v-58h-450v65l347 347h-318v55zM250 521l-191 96l26 37l165 -60l173 60l24 -37z" />
    <glyph glyph-name="Ydieresis" unicode="&#x178;" horiz-adv-x="728" 
d="M722 667l-315 -388v-279h-93v279l-307 388h109l248 -312l247 312h111zM302 790v-66h-97v66h97zM525 790v-66h-99v66h99z" />
    <glyph glyph-name="uni00A0" unicode="&#xa0;" 
 />
    <glyph glyph-name="exclamdown" unicode="&#xa1;" horiz-adv-x="170" 
d="M37 -200v483h93v-483h-93zM36 376v91h99v-91h-99z" />
    <glyph glyph-name="cent" unicode="&#xa2;" horiz-adv-x="548" 
d="M316 491v-367q86 3 108.5 29t22.5 90h85q0 -92 -47 -133.5t-169 -41.5v-71h-72v71q-152 3 -186.5 70.5t-34.5 170.5q0 98 39 167.5t182 69.5v65h72v-65q106 -1 155.5 -36t49.5 -121h-85q-3 56 -22.5 78t-97.5 24zM244 492q-91 -6 -109.5 -44t-18.5 -108v-33v-20.5
t1 -21.5q1 -21 4 -41.5t10 -39.5q13 -37 41.5 -47t71.5 -12v367z" />
    <glyph glyph-name="sterling" unicode="&#xa3;" horiz-adv-x="711" 
d="M456 323v-63h-237v-42t2 -42q0 -40 -12.5 -66t-51.5 -49q-1 -1 -3 -2t-3 -2l540 5v-62h-647v57q32 6 50 21t25 40q4 14 5.5 28.5t2.5 29.5v14.5v14.5v55h-104v63h104v102v7.5v6.5q-1 4 -1 7.5v6.5q0 129 52.5 173.5t213.5 44.5q121 0 202.5 -28t81.5 -144v-8v-8t-1 -8
t-1 -8h-90q0 78 -27.5 109.5t-132.5 31.5h-32h-30t-33 -2q-23 -2 -45 -7t-36 -15q-14 -11 -19.5 -27t-7.5 -33q0 -7 -1 -13.5t-1 -12.5v-3.5v-3.5v-4.5v-4.5v-24v-135h237z" />
    <glyph glyph-name="currency" unicode="&#xa4;" horiz-adv-x="761" 
d="M36 109l114 93q-28 30 -44 66t-16 74q0 39 17.5 73.5t44.5 65.5l-118 94l52 42l118 -94q10 5 20 9.5t20 8.5q32 14 65 22.5t73 8.5q49 0 91.5 -13.5t81.5 -35.5l119 93l52 -41l-117 -93q28 -31 45 -66.5t17 -74.5t-17 -73t-43 -66l116 -93l-51 -42l-117 93
q-39 -24 -84 -37t-95 -13q-48 0 -92 15t-84 35l-115 -93zM381 507q-84 0 -144.5 -49t-60.5 -116t60.5 -115.5t144.5 -48.5t144 48.5t60 115.5t-59.5 116t-144.5 49z" />
    <glyph glyph-name="yen" unicode="&#xa5;" horiz-adv-x="711" 
d="M534 455h113v-62h-161l-76 -99h237v-62h-248v-232h-94v232h-241v62h230l-74 99h-156v62h110l-159 212h109l231 -312l230 312h111z" />
    <glyph glyph-name="brokenbar" unicode="&#xa6;" horiz-adv-x="163" 
d="M39 153h98v-320h-98v320zM39 666h98v-334h-98v334z" />
    <glyph glyph-name="section" unicode="&#xa7;" horiz-adv-x="643" 
d="M591 497h-82q0 77 -32.5 96t-127.5 19h-60h-13h-12q-20 -1 -39 -3t-35 -7q-23 -7 -31.5 -22.5t-9.5 -32.5q-2 -6 -2 -12v-12q0 -48 13.5 -64t51.5 -26q10 -2 22 -5t26 -6l186 -45q11 -3 22 -5t19 -5q65 -15 93.5 -40t28.5 -94q0 -40 -16.5 -70.5t-65.5 -47.5
q58 -20 70.5 -54t12.5 -79q0 -102 -58 -137t-182 -35l-51 -1q-139 1 -211.5 28.5t-72.5 157.5l85 -1v-28v-6.5v-7.5q1 -16 6 -30t19 -24t39.5 -14.5t52.5 -6.5q19 -1 36.5 -1.5t32.5 -0.5l11 -1q5 1 10 1h12q5 1 10 1h10q63 1 114.5 14t51.5 80q0 49 -14.5 67t-59.5 29
q-7 2 -17 4.5t-22 4.5l-256 54q-80 18 -102.5 49t-22.5 95q0 46 18 76.5t77 40.5q-41 22 -52.5 55t-11.5 70q0 105 57.5 132t174.5 27h31q139 0 202.5 -25.5t63.5 -151.5zM205 189l189 -42q2 0 4.5 -1t5.5 -1q11 -3 23.5 -5t24.5 -2q48 0 62.5 28.5t15.5 63.5v4.5v5.5
q0 36 -30 49.5t-66 21.5q0 1 -1 1h-2t-1.5 0.5t-2.5 0.5l-180 42q-8 3 -17.5 5t-18.5 4q-6 1 -12.5 1.5t-12.5 0.5q-42 0 -57 -26.5t-15 -57.5v-1.5v-1.5q0 -43 15.5 -59t57.5 -27q4 -1 8.5 -2t9.5 -2z" />
    <glyph glyph-name="dieresis" unicode="&#xa8;" horiz-adv-x="397" 
d="M135 580v-66h-97v66h97zM358 580v-66h-99v66h99z" />
    <glyph glyph-name="copyright" unicode="&#xa9;" horiz-adv-x="915" 
d="M458 678q178 0 304 -101.5t126 -243.5t-126 -243t-304 -101q-177 0 -304 101t-127 243q0 143 127 244t304 101zM458 639q-157 0 -268 -90.5t-111 -215.5t111 -216t268 -91q158 0 268 91.5t110 215.5q0 125 -110 215.5t-268 90.5zM596 276h77q0 -97 -50.5 -126t-170.5 -29
q-166 0 -199.5 54.5t-33.5 172.5q0 107 46.5 154t185.5 47q87 0 150 -22t63 -106v-6q-1 -2 -1 -4v-3h-77q0 57 -28.5 74t-96.5 17q-105 0 -132 -26.5t-27 -116.5v-43q0 -71 20 -106.5t122 -35.5q88 0 120 16.5t32 88.5z" />
    <glyph glyph-name="ordfeminine" unicode="&#xaa;" horiz-adv-x="442" 
d="M21 320h399v-39h-399v39zM131 583h-62q0 1 -1 2.5t-1 2.5v2.5v2.5q0 56 46.5 66.5t102.5 10.5q74 0 117.5 -15t43.5 -86v-185h-58l2 23q-4 -3 -7.5 -5.5t-7.5 -4.5q-24 -13 -48 -15.5t-56 -2.5q-65 0 -106 16t-41 75q0 58 42.5 72.5t103.5 14.5h7h7q26 0 51.5 -3.5
t47.5 -18.5v25q0 51 -19 62.5t-83 11.5h-3h-3q-29 0 -52.5 -6t-23.5 -34v-2.5v-2.5q0 -2 0.5 -3t0.5 -3zM119 475q0 -43 23 -50t70 -7h12.5h11.5q30 2 55 11t25 39q0 38 -28.5 45t-68.5 7h-17q-57 0 -70 -10t-13 -35z" />
    <glyph glyph-name="guillemotleft" unicode="&#xab;" horiz-adv-x="482" 
d="M168 511l63 -31l-131 -223l146 -225l-61 -32l-167 257zM373 511l63 -31l-131 -223l146 -225l-61 -32l-167 257z" />
    <glyph glyph-name="logicalnot" unicode="&#xac;" horiz-adv-x="584" 
d="M450 0v209h-447v68h541v-277h-94z" />
    <glyph glyph-name="registered" unicode="&#xae;" horiz-adv-x="915" 
d="M458 678q88 0 166 -27.5t136.5 -74.5t93 -110t34.5 -133q0 -71 -34.5 -133.5t-92.5 -109t-136.5 -74t-166.5 -27.5q-89 0 -167 27t-136.5 74t-93 109.5t-34.5 133.5t34.5 134t93 110t136.5 74t167 27zM458 639q-79 0 -147.5 -24.5t-120 -66.5t-81.5 -97.5t-30 -117.5
t29.5 -117.5t81.5 -97.5t120.5 -67t147.5 -25t147.5 25t120 67t81 97.5t29.5 117.5t-30 117.5t-81.5 97.5t-120 66.5t-146.5 24.5zM257 111v450h266q90 0 129 -29t39 -101q0 -23 -2 -42t-11.5 -34t-29.5 -26t-57 -16q48 -3 69.5 -26.5t21.5 -60.5v-115h-65v103
q0 45 -25.5 62t-79.5 17h-193v-182h-62zM319 334h183q65 0 93.5 16.5t28.5 68.5q0 23 -2.5 41t-12.5 31t-30 19.5t-55 6.5h-205v-183z" />
    <glyph glyph-name="macron" unicode="&#xaf;" 
 />
    <glyph glyph-name="degree" unicode="&#xb0;" horiz-adv-x="422" 
d="M387 521q0 -58 -52.5 -99.5t-123.5 -41.5q-69 0 -122.5 41t-53.5 97q0 60 50 102.5t126 42.5q74 0 125 -42t51 -100zM341 521q0 43 -38 74.5t-92 31.5t-92 -32t-38 -75q0 -42 38.5 -73t90.5 -31q53 0 92 31t39 74z" />
    <glyph glyph-name="plusminus" unicode="&#xb1;" horiz-adv-x="576" 
d="M4 98h568v-42h-568v42zM4 374h256v192h54v-192h258v-42h-258v-190h-54v190h-256v42z" />
    <glyph glyph-name="twosuperior" unicode="&#xb2;" horiz-adv-x="433" 
d="M404 310v-43h-369v77q0 74 52 91.5t128 23.5q9 1 17 1.5t14 0.5q50 4 72 16t22 66q0 57 -23 69.5t-92 12.5h-21h-13.5t-14.5 -1q-17 0 -33.5 -3t-25.5 -9q-12 -8 -16 -20.5t-4 -26.5v-10t2 -10v-10v-10h-64q0 96 39.5 120.5t149.5 24.5q96 0 138.5 -22.5t42.5 -104.5
v-9.5v-9.5q-1 -23 -8 -44.5t-30 -36.5q-22 -15 -50 -20.5t-57 -6.5q-8 -1 -15.5 -1h-13.5q-52 -2 -92 -13t-40 -66v-6.5v-6.5t0.5 -6.5t0.5 -6.5h304z" />
    <glyph glyph-name="threesuperior" unicode="&#xb3;" horiz-adv-x="445" 
d="M175 451v45h68q59 1 76 12t17 57q0 44 -20.5 53.5t-69.5 9.5h-58q-42 0 -64.5 -9.5t-22.5 -47.5v-30h-61q0 86 40 109t137 23q78 0 131.5 -14t53.5 -89v-8v-8q-1 -12 -3 -23.5t-8 -22.5q-8 -14 -21 -21.5t-30 -12.5q43 -8 57.5 -30t14.5 -57q0 -87 -48 -104.5t-146 -17.5
q-108 0 -148 23t-40 115h63v-26q0 -34 12 -49.5t58 -16.5h20h22q10 -1 20 -1h20q53 0 77 11t24 56q0 47 -20.5 60.5t-78.5 13.5h-72z" />
    <glyph glyph-name="acute" unicode="&#xb4;" horiz-adv-x="226" 
d="M174 660l44 -48l-179 -88l-30 36z" />
    <glyph glyph-name="mu" unicode="&#xb5;" horiz-adv-x="558" 
d="M23 -166v644h90v-270q0 -33 6 -64.5t35 -56.5q24 -20 55 -31t66 -11q75 0 117 45t51 99q1 7 1.5 14t0.5 14v261h90v-478h-90v93q-21 -45 -65.5 -74.5t-106.5 -29.5q-55 0 -93.5 18t-66.5 54v-227h-90z" />
    <glyph glyph-name="paragraph" unicode="&#xb6;" horiz-adv-x="738" 
d="M699 -187h-84v791h-99v-791h-83v448h-133q-11 1 -23 1h-24h-17h-17q-44 1 -85 9.5t-71 36.5q-28 26 -39 58t-13 65q-1 7 -1 14v14q0 108 47 157.5t187 49.5h41h414v-853zM433 322v282l-153 3q-4 0 -8 0.5t-9 0.5h-9.5h-8.5h-22t-23 -1q-19 -2 -36.5 -6t-29.5 -14
q-16 -13 -23.5 -32.5t-10.5 -40.5q-1 -11 -1 -21.5v-20.5q0 -85 31 -115t145 -31q40 0 79.5 -1t78.5 -3z" />
    <glyph glyph-name="cedilla" unicode="&#xb8;" horiz-adv-x="174" 
d="M97 -35l68 -31l-98 -109l-55 23z" />
    <glyph glyph-name="onesuperior" unicode="&#xb9;" horiz-adv-x="267" 
d="M227 667v-400h-62v355l-123 -108l-42 31l143 122h84z" />
    <glyph glyph-name="ordmasculine" unicode="&#xba;" horiz-adv-x="444" 
d="M22 320h399v-39h-399v39zM57 534q0 82 31.5 111t133.5 29q101 0 132.5 -29.5t31.5 -113.5v-16q0 -70 -24 -103t-132 -33q-92 0 -132.5 27t-40.5 103v25zM120 534v-28v-10v-10q1 -17 5.5 -32.5t15.5 -23.5q10 -7 23.5 -9t28.5 -2q85 0 107.5 15t22.5 75v37q0 42 -12.5 65
t-70.5 23h-28h-13t-14 -1q-13 -1 -24 -3t-19 -7q-10 -7 -15 -20t-6 -28q-1 -7 -1 -14v-13v-14z" />
    <glyph glyph-name="guillemotright" unicode="&#xbb;" horiz-adv-x="482" 
d="M109 511l150 -254l-168 -257l-60 32l145 225l-132 223zM314 511l150 -254l-168 -257l-60 32l145 225l-132 223z" />
    <glyph glyph-name="onequarter" unicode="&#xbc;" horiz-adv-x="818" 
d="M711 667l-565 -667h-64l563 667h66zM720 410v-265h75v-44h-75v-91h-61v91h-284v56l255 253h90zM659 145v224l-224 -224h224zM252 678v-400h-61v355l-124 -108l-41 31l143 122h83z" />
    <glyph glyph-name="onehalf" unicode="&#xbd;" horiz-adv-x="894" 
d="M701 667l-565 -667h-64l563 667h66zM871 43v-43h-367v77q0 74 48.5 91.5t121.5 22.5q2 0 4 0.5t4 0.5q9 1 17 1.5t16 0.5q50 4 72 16t22 66q0 57 -24 69.5t-93 12.5h-21h-13t-14 -1q-18 0 -34 -3t-25 -9q-11 -7 -14.5 -17.5t-4.5 -21.5v-5.5v-4.5v-38h-64q2 7 2 13v12
q2 88 49.5 104t138.5 16q97 0 138.5 -22.5t41.5 -104.5v-9.5v-9.5q-1 -23 -8 -44.5t-29 -36.5q-18 -12 -41.5 -18t-48.5 -8q-11 -2 -22 -2.5t-21 -1.5h-3.5h-2.5q-97 -6 -113.5 -22t-16.5 -50v-8t1 -7v-8v-8h304zM254 668v-400h-62v355l-123 -108l-42 31l143 122h84z" />
    <glyph glyph-name="threequarters" unicode="&#xbe;" horiz-adv-x="953" 
d="M817 667l-566 -667h-63l563 667h66zM852 395v-265h75v-44h-75v-91h-61v91h-283v56l254 253h90zM791 130v224l-223 -224h223zM170 449v45q6 -1 11.5 -1h10.5l46 1q59 1 76 11.5t17 56.5q0 44 -20 54t-70 10h-56h-9.5h-9.5q-16 -1 -32 -4t-24 -11q-8 -6 -10.5 -14.5
t-3.5 -17.5v-4.5v-5.5v-30h-61q0 86 40 108.5t137 22.5q78 0 131.5 -13.5t53.5 -89.5v-12t-1 -13q-1 -9 -3 -18t-7 -18q-8 -14 -21 -21.5t-30 -12.5q43 -9 57.5 -31t14.5 -57q0 -86 -48 -103.5t-146 -17.5q-108 0 -148 23t-40 115h63v-26q0 -34 12 -49.5t58 -16.5
q12 0 22.5 -0.5t20.5 -0.5q10 -1 20.5 -1h21.5q54 0 76 12.5t22 55.5q0 47 -20.5 60.5t-78.5 13.5h-72z" />
    <glyph glyph-name="questiondown" unicode="&#xbf;" horiz-adv-x="548" 
d="M268 274h91q0 -65 -17 -95.5t-88 -54.5q-5 -2 -11.5 -4t-12.5 -4q-15 -5 -28.5 -9t-25.5 -8q-42 -16 -58.5 -38.5t-16.5 -76.5q0 -88 33.5 -106.5t136.5 -18.5q82 0 128.5 15.5t46.5 90.5v44h88q0 -120 -42.5 -167.5t-207.5 -47.5q-133 0 -201.5 30t-68.5 152
q0 59 18.5 110.5t100.5 74.5q6 2 12 3.5t13 3.5q1 0 1.5 0.5t1.5 0.5q40 11 72.5 27t32.5 55v6t2 6v5v6zM265 376v91h99v-91h-99z" />
    <glyph glyph-name="Agrave" unicode="&#xc0;" horiz-adv-x="775" 
d="M598 141h-421l-64 -141h-100l304 667h134l311 -667h-99zM571 202l-185 410l-184 -410h369zM327 846l165 -100l-29 -36l-180 88z" />
    <glyph glyph-name="Aacute" unicode="&#xc1;" horiz-adv-x="775" 
d="M598 141h-421l-64 -141h-100l304 667h134l311 -667h-99zM571 202l-185 410l-184 -410h369zM448 846l44 -48l-179 -88l-30 36z" />
    <glyph glyph-name="Acircumflex" unicode="&#xc2;" horiz-adv-x="783" 
d="M602 141h-421l-64 -141h-100l304 667h134l311 -667h-99zM575 202l-185 410l-184 -410h369zM393 841l192 -95l-27 -38l-165 61l-172 -61l-24 38z" />
    <glyph glyph-name="Atilde" unicode="&#xc3;" horiz-adv-x="775" 
d="M598 141h-421l-64 -141h-100l304 667h134l311 -667h-99zM571 202l-185 410l-184 -410h369zM528 812l48 -24q0 -1 -1 -1.5t-2 -1.5q-19 -24 -46.5 -44t-65.5 -20q-22 0 -42 6t-38 13q-2 0 -3 0.5t-2 1.5q-19 6 -37 11.5t-38 5.5q-19 0 -29.5 -9.5t-19.5 -21.5
q-1 -1 -2 -2.5t-2 -2.5l-50 22q16 24 39.5 44.5t60.5 22.5q23 0 43 -6t40 -13q18 -8 38 -14t43 -6q20 0 35 10t25 22l3.5 3.5t2.5 3.5z" />
    <glyph glyph-name="Adieresis" unicode="&#xc4;" horiz-adv-x="775" 
d="M598 141h-421l-64 -141h-100l304 667h134l311 -667h-99zM571 202l-185 410l-184 -410h369zM324 790v-66h-97v66h97zM547 790v-66h-99v66h99z" />
    <glyph glyph-name="Aring" unicode="&#xc5;" horiz-adv-x="779" 
d="M600 141h-421l-64 -141h-100l304 667h134l311 -667h-99zM573 202l-185 410l-184 -410h369zM390 704q-39 0 -67.5 23t-28.5 54t28.5 53.5t67.5 22.5t67 -22.5t28 -53.5t-28 -54t-67 -23zM390 737q21 0 37.5 13t16.5 31q0 17 -16.5 30t-37.5 13q-22 0 -38.5 -13t-16.5 -30
q0 -18 16.5 -31t38.5 -13z" />
    <glyph glyph-name="AE" unicode="&#xc6;" horiz-adv-x="1169" 
d="M708 597v-223h416v-64h-416v-245h435v-65h-532v140h-387l-96 -140h-112l460 667h667v-70h-435zM611 204v393h-78l-267 -393h345z" />
    <glyph glyph-name="Ccedilla" unicode="&#xc7;" horiz-adv-x="712" 
d="M366 -35l69 -31l-99 -109l-55 23zM598 227h92q0 -8 0.5 -15.5t0.5 -15.5t1 -15.5t1 -15.5q0 -73 -43.5 -116.5t-140.5 -48.5q-34 -1 -67.5 -2t-67.5 -1h-116q-168 9 -199 96t-34 191v4v4v7.5v7.5v13.5v13.5v105q0 95 42 153.5t171 71.5q20 2 40.5 3t40.5 2t40.5 1h40.5
q166 0 219.5 -37.5t61.5 -174.5h-92q0 76 -22.5 110.5t-126.5 34.5q-44 0 -88 -1t-88 -3q-93 -5 -117 -46t-24 -110v-12l1 -107v-35q0 -16 0.5 -33t1.5 -35q3 -32 9 -63t21 -52q15 -23 47.5 -31.5t67.5 -10.5q12 -1 23 -1h22h42t41 1q20 0 40.5 0.5t40.5 1.5q55 4 85.5 21
t33.5 65v18.5v19.5q-1 9 -1 18.5v18.5z" />
    <glyph glyph-name="Egrave" unicode="&#xc8;" horiz-adv-x="571" 
d="M121 600v-226h425v-63h-425v-247h443v-64h-535v667h535v-67h-443zM234 846l165 -100l-28 -36l-180 88z" />
    <glyph glyph-name="Eacute" unicode="&#xc9;" horiz-adv-x="570" 
d="M121 600v-226h425v-63h-425v-247h443v-64h-535v667h535v-67h-443zM356 846l43 -48l-178 -88l-30 36z" />
    <glyph glyph-name="Ecircumflex" unicode="&#xca;" horiz-adv-x="578" 
d="M125 600v-226h425v-63h-425v-247h443v-64h-535v667h535v-67h-443zM301 841l191 -95l-26 -38l-165 61l-173 -61l-23 38z" />
    <glyph glyph-name="Edieresis" unicode="&#xcb;" horiz-adv-x="573" 
d="M124 600v-226h425v-63h-425v-247h443v-64h-535v667h535v-67h-443zM235 790v-66h-98v66h98zM457 790v-66h-98v66h98z" />
    <glyph glyph-name="Igrave" unicode="&#xcc;" horiz-adv-x="231" 
d="M162 667v-667h-95v667h95zM55 846l165 -100l-29 -36l-180 88z" />
    <glyph glyph-name="Iacute" unicode="&#xcd;" horiz-adv-x="231" 
d="M162 667v-667h-95v667h95zM176 846l44 -48l-179 -88l-30 36z" />
    <glyph glyph-name="Icircumflex" unicode="&#xce;" horiz-adv-x="406" 
d="M250 667v-667h-95v667h95zM205 841l192 -95l-27 -38l-165 61l-172 -61l-24 38z" />
    <glyph glyph-name="Idieresis" unicode="&#xcf;" horiz-adv-x="371" 
d="M232 667v-667h-95v667h95zM122 790v-66h-97v66h97zM345 790v-66h-99v66h99z" />
    <glyph glyph-name="Eth" unicode="&#xd0;" horiz-adv-x="843" 
d="M120 667h304q191 0 290.5 -92.5t99.5 -240.5q0 -150 -100.5 -242t-294.5 -92h-299v313h-95v61h95v293zM216 374h140v-61h-140v-247h188q159 0 235 73.5t76 194.5q0 120 -76 193.5t-233 73.5h-190v-227z" />
    <glyph glyph-name="Ntilde" unicode="&#xd1;" horiz-adv-x="774" 
d="M743 667v-667h-152l-469 603v-603h-91v667h152l469 -609v609h91zM528 812l48 -24q0 -1 -1 -1.5t-2 -1.5q-19 -24 -46.5 -44t-65.5 -20q-22 0 -42 6t-38 13q-2 0 -3 0.5t-2 1.5q-19 6 -37 11.5t-38 5.5q-19 0 -29.5 -9.5t-19.5 -21.5q-1 -1 -2 -2.5t-2 -2.5l-50 22
q16 24 39.5 44.5t60.5 22.5q23 0 43 -6t40 -13q18 -8 38 -14t43 -6q20 0 35 10t25 22l3.5 3.5t2.5 3.5z" />
    <glyph glyph-name="Oacute" unicode="&#xd3;" horiz-adv-x="704" 
d="M25 322v39q0 136 34 224.5t237 88.5h41q169 0 255 -34t86 -191v-118.5t-2 -118.5q-4 -122 -63.5 -170.5t-216.5 -48.5h-9.5h-9.5h-9.5h-9.5q-10 1 -18.5 1h-17.5q-141 0 -214 35t-82 162q-1 33 -1 66v65zM120 325l1 -107q2 -97 38 -129t162 -32q141 0 200 23.5t62 145.5
q0 27 1 54.5t1 55.5v55.5v54.5q0 123 -54.5 144t-188.5 21h-31q-110 0 -148 -27t-41 -136zM413 847l44 -48l-179 -88l-30 36z" />
    <glyph glyph-name="Ocircumflex" unicode="&#xd4;" horiz-adv-x="710" 
d="M28 322v39q0 136 34 224.5t237 88.5h41q169 0 255 -34t86 -191v-118.5t-2 -118.5q-4 -122 -63.5 -170.5t-216.5 -48.5h-9.5h-9.5h-9.5h-9.5q-10 1 -18.5 1h-17.5q-141 0 -214 35t-82 162q-1 33 -1 66v65zM123 325l1 -107q2 -97 38 -129t162 -32q141 0 200 23.5t62 145.5
q0 27 1 54.5t1 55.5v55.5v54.5q0 123 -54.5 144t-188.5 21h-31q-110 0 -148 -27t-41 -136zM358 841l191 -95l-26 -38l-165 61l-173 -61l-24 38z" />
    <glyph glyph-name="Otilde" unicode="&#xd5;" horiz-adv-x="709" 
d="M28 322v39q0 136 34 224.5t237 88.5h41q169 0 255 -34t86 -191v-118.5t-2 -118.5q-4 -122 -63.5 -170.5t-216.5 -48.5h-9.5h-9.5h-9.5h-9.5q-10 1 -18.5 1h-17.5q-141 0 -214 35t-82 162q-1 33 -1 66v65zM123 325l1 -107q2 -97 38 -129t162 -32q141 0 200 23.5t62 145.5
q0 27 1 54.5t1 55.5v55.5v54.5q0 123 -54.5 144t-188.5 21h-31q-110 0 -148 -27t-41 -136zM496 813l48 -24q0 -1 -0.5 -1.5t-2.5 -1.5q-18 -24 -45.5 -44t-66.5 -20q-21 0 -41 6t-39 13q-1 0 -2.5 0.5t-2.5 1.5q-19 6 -37 11.5t-38 5.5q-19 0 -29.5 -9.5t-19.5 -21.5
q-1 -1 -1.5 -2.5t-2.5 -2.5l-50 22q17 24 40 44.5t60 22.5q23 0 43 -6t40 -13q19 -8 39 -14t42 -6q20 0 35 10t25 22q3 2 4 3.5t2 3.5z" />
    <glyph glyph-name="Odieresis" unicode="&#xd6;" horiz-adv-x="710" 
d="M28 322v39q0 136 34 224.5t237 88.5h41q169 0 255 -34t86 -191v-118.5t-2 -118.5q-4 -122 -63.5 -170.5t-216.5 -48.5h-9.5h-9.5h-9.5h-9.5q-10 1 -18.5 1h-17.5q-141 0 -214 35t-82 162q-1 33 -1 66v65zM123 325l1 -107q2 -97 38 -129t162 -32q141 0 200 23.5t62 145.5
q0 27 1 54.5t1 55.5v55.5v54.5q0 123 -54.5 144t-188.5 21h-31q-110 0 -148 -27t-41 -136zM293 791v-66h-98v66h98zM515 791v-66h-99v66h99z" />
    <glyph glyph-name="multiply" unicode="&#xd7;" horiz-adv-x="540" 
d="M71 529l198 -159l199 159l37 -30l-199 -159l199 -158l-36 -29l-199 158l-199 -159l-37 30l199 159l-198 158z" />
    <glyph glyph-name="Oslash" unicode="&#xd8;" horiz-adv-x="827" 
d="M793 668v-77l-44 -33q9 -15 13.5 -35.5t5.5 -41.5q3 -17 3 -34.5v-31.5v-97.5t-3 -96.5q-1 -79 -36.5 -143t-149.5 -77q-54 -4 -107 -4.5t-107 -0.5q-72 0 -138.5 9t-117.5 56l-80 -60v72l50 39q-9 17 -13.5 38.5t-5.5 43.5q-2 19 -2 37.5v34.5v94v4.5v4.5q0 21 0.5 43
t2.5 45q7 72 42.5 133.5t139.5 73.5q21 2 41 3.5t41 2.5q20 1 40.5 1h40.5h73h10h11q59 -1 116 -12.5t98 -50.5zM179 112q22 -28 55.5 -38.5t72.5 -12.5q29 -1 58 -1.5t57 -0.5q162 0 208 34.5t46 160.5v34v35q0 17 0.5 34t0.5 34q0 26 -1.5 52.5t-3.5 53.5zM652 558
q-20 26 -51.5 37.5t-68.5 11.5q-15 0 -30.5 0.5t-32.5 0.5h-31.5h-30.5q-186 0 -218.5 -39.5t-32.5 -213.5l-2 -106q0 -10 1 -20t1 -19v-20v-20z" />
    <glyph glyph-name="Ugrave" unicode="&#xd9;" horiz-adv-x="714" 
d="M593 667h94v-467q0 -103 -49 -150.5t-189 -51.5q-23 -1 -46.5 -1.5t-46.5 -0.5q-153 0 -241 29.5t-88 174.5v467h95v-467q0 -86 38 -112.5t143 -26.5h91q112 0 155.5 24t43.5 115v467zM297 846l165 -100l-29 -36l-180 88z" />
    <glyph glyph-name="Uacute" unicode="&#xda;" horiz-adv-x="715" 
d="M593 667h94v-467q0 -103 -49 -150.5t-189 -51.5q-23 -1 -46.5 -1.5t-46.5 -0.5q-153 0 -241 29.5t-88 174.5v467h95v-467q0 -86 38 -112.5t143 -26.5h91q112 0 155.5 24t43.5 115v467zM418 846l44 -48l-179 -88l-30 36z" />
    <glyph glyph-name="Ucircumflex" unicode="&#xdb;" horiz-adv-x="720" 
d="M596 667h94v-467q0 -103 -49 -150.5t-189 -51.5q-23 -1 -46.5 -1.5t-46.5 -0.5q-153 0 -241 29.5t-88 174.5v467h95v-467q0 -86 38 -112.5t143 -26.5h91q112 0 155.5 24t43.5 115v467zM362 841l192 -95l-27 -38l-165 61l-172 -61l-24 38z" />
    <glyph glyph-name="Udieresis" unicode="&#xdc;" horiz-adv-x="720" 
d="M596 667h94v-467q0 -103 -49 -150.5t-189 -51.5q-23 -1 -46.5 -1.5t-46.5 -0.5q-153 0 -241 29.5t-88 174.5v467h95v-467q0 -86 38 -112.5t143 -26.5h91q112 0 155.5 24t43.5 115v467zM297 791v-66h-97v66h97zM520 791v-66h-99v66h99z" />
    <glyph glyph-name="Thorn" unicode="&#xde;" horiz-adv-x="623" 
d="M39 667h96v-80h203q116 0 198.5 -49t82.5 -150q0 -94 -78 -144.5t-190 -50.5h-216v-193h-96v667zM135 523v-269h179q81 0 144 30.5t63 104.5t-56.5 104t-140.5 30h-189z" />
    <glyph glyph-name="germandbls" unicode="&#xdf;" horiz-adv-x="578" 
d="M38 0v515q0 98 54.5 128t166.5 30h12h11q82 -1 150 -23.5t68 -107.5q0 -47 -26 -71t-81 -41q110 -18 132.5 -71t22.5 -134q0 -91 -30 -160t-168 -69q-65 0 -115.5 26.5t-50.5 84.5v9.5t1 8.5v9.5v8.5h85v-6v-6q3 -30 17.5 -54.5t60.5 -24.5q57 0 80.5 26.5t24.5 68.5
q0 9 0.5 17.5t0.5 17.5q1 9 1 17.5v17.5q0 72 -23 128t-135 56h-20h-19q-10 -1 -20 -1h-20v59h12.5t13.5 1h12.5h12.5h8.5h9.5q50 0 88 9t38 62q0 63 -39.5 75t-108.5 12q-68 0 -102 -19t-34 -77v-522h-91z" />
    <glyph glyph-name="agrave" unicode="&#xe0;" horiz-adv-x="548" 
d="M130 332h-90q0 97 66 116.5t165 19.5q121 0 186.5 -27t65.5 -137v-304h-81l4 48q-38 -38 -88.5 -46.5t-107.5 -8.5q-108 0 -169 25.5t-61 121.5q0 93 64 117t163 24q14 0 29 -0.5t30 -1.5q22 -1 44 -4.5t42 -9.5q14 -4 24 -12.5t17 -19.5v56q0 86 -30 107t-137 21
q-10 0 -24 -0.5t-26 -1.5q-19 -1 -35 -5t-28 -11t-17 -17.5t-6 -22.5q-2 -3 -2 -6.5v-6.5v-6.5t2 -7.5zM110 148q0 -61 31 -80.5t104 -19.5h26t27 1q53 2 96.5 18.5t43.5 68.5q0 63 -47.5 77t-113.5 14h-21h-23.5t-25.5 -1q-21 -2 -41.5 -6.5t-34.5 -14.5q-10 -6 -14.5 -16
t-5.5 -21q-1 -5 -1 -10v-10zM222 660l165 -100l-29 -36l-180 88z" />
    <glyph glyph-name="aacute" unicode="&#xe1;" horiz-adv-x="549" 
d="M129 332h-90q0 97 66 116.5t165 19.5q121 0 186.5 -27t65.5 -137v-304h-81l4 48q-38 -38 -88.5 -46.5t-107.5 -8.5q-108 0 -169 25.5t-61 121.5q0 93 64 117t163 24q14 0 29 -0.5t30 -1.5q22 -1 44 -4.5t42 -9.5q14 -4 24 -12.5t17 -19.5v56q0 86 -30 107t-137 21
q-10 0 -24 -0.5t-26 -1.5q-19 -1 -35 -5t-28 -11t-17 -17.5t-6 -22.5q-2 -3 -2 -6.5v-6.5v-6.5t2 -7.5zM109 148q0 -61 31 -80.5t104 -19.5h26t27 1q53 2 96.5 18.5t43.5 68.5q0 63 -47.5 77t-113.5 14h-21h-23.5t-25.5 -1q-21 -2 -41.5 -6.5t-34.5 -14.5q-10 -6 -14.5 -16
t-5.5 -21q-1 -5 -1 -10v-10zM342 660l44 -48l-179 -88l-30 36z" />
    <glyph glyph-name="acircumflex" unicode="&#xe2;" horiz-adv-x="558" 
d="M134 332h-90q0 97 66 116.5t165 19.5q121 0 186.5 -27t65.5 -137v-304h-81l4 48q-38 -38 -88.5 -46.5t-107.5 -8.5q-108 0 -169 25.5t-61 121.5q0 93 64 117t163 24q14 0 29 -0.5t30 -1.5q22 -1 44 -4.5t42 -9.5q14 -4 24 -12.5t17 -19.5v56q0 86 -30 107t-137 21
q-10 0 -24 -0.5t-26 -1.5q-19 -1 -35 -5t-28 -11t-17 -17.5t-6 -22.5q-2 -3 -2 -6.5v-6.5v-6.5t2 -7.5zM114 148q0 -61 31 -80.5t104 -19.5h26t27 1q53 2 96.5 18.5t43.5 68.5q0 63 -47.5 77t-113.5 14h-21h-23.5t-25.5 -1q-21 -2 -41.5 -6.5t-34.5 -14.5q-10 -6 -14.5 -16
t-5.5 -21q-1 -5 -1 -10v-10zM289 654l191 -95l-26 -38l-165 61l-173 -61l-24 38z" />
    <glyph glyph-name="atilde" unicode="&#xe3;" horiz-adv-x="561" 
d="M136 332h-90q0 97 66 116.5t165 19.5q121 0 186.5 -27t65.5 -137v-304h-81l4 48q-38 -38 -88.5 -46.5t-107.5 -8.5q-108 0 -169 25.5t-61 121.5q0 93 64 117t163 24q14 0 29 -0.5t30 -1.5q22 -1 44 -4.5t42 -9.5q14 -4 24 -12.5t17 -19.5v56q0 86 -30 107t-137 21
q-10 0 -24 -0.5t-26 -1.5q-19 -1 -35 -5t-28 -11t-17 -17.5t-6 -22.5q-2 -3 -2 -6.5v-6.5v-6.5t2 -7.5zM116 148q0 -61 31 -80.5t104 -19.5h26t27 1q53 2 96.5 18.5t43.5 68.5q0 63 -47.5 77t-113.5 14h-21h-23.5t-25.5 -1q-21 -2 -41.5 -6.5t-34.5 -14.5q-10 -6 -14.5 -16
t-5.5 -21q-1 -5 -1 -10v-10zM429 612l48 -24q0 -1 -0.5 -1.5t-2.5 -1.5q-18 -24 -45.5 -44t-66.5 -20q-21 0 -41 6t-39 13q-1 0 -2.5 0.5t-2.5 1.5q-19 6 -37 11.5t-38 5.5q-19 0 -29.5 -9.5t-19.5 -21.5q-1 -1 -1.5 -2.5t-2.5 -2.5l-50 22q17 24 40 44.5t60 22.5
q23 0 43 -6t40 -13q19 -8 39 -14t42 -6q20 0 35 10t25 22q3 2 4 3.5t2 3.5z" />
    <glyph glyph-name="adieresis" unicode="&#xe4;" horiz-adv-x="557" 
d="M133 332h-90q0 97 66 116.5t165 19.5q121 0 186.5 -27t65.5 -137v-304h-81l4 48q-38 -38 -88.5 -46.5t-107.5 -8.5q-108 0 -169 25.5t-61 121.5q0 93 64 117t163 24q14 0 29 -0.5t30 -1.5q22 -1 44 -4.5t42 -9.5q14 -4 24 -12.5t17 -19.5v56q0 86 -30 107t-137 21
q-10 0 -24 -0.5t-26 -1.5q-19 -1 -35 -5t-28 -11t-17 -17.5t-6 -22.5q-2 -3 -2 -6.5v-6.5v-6.5t2 -7.5zM113 148q0 -61 31 -80.5t104 -19.5h26t27 1q53 2 96.5 18.5t43.5 68.5q0 63 -47.5 77t-113.5 14h-21h-23.5t-25.5 -1q-21 -2 -41.5 -6.5t-34.5 -14.5q-10 -6 -14.5 -16
t-5.5 -21q-1 -5 -1 -10v-10zM223 581v-66h-98v66h98zM445 581v-66h-99v66h99z" />
    <glyph glyph-name="aring" unicode="&#xe5;" horiz-adv-x="552" 
d="M131 332h-90q0 97 66 116.5t165 19.5q121 0 186.5 -27t65.5 -137v-304h-81l4 48q-38 -38 -88.5 -46.5t-107.5 -8.5q-108 0 -169 25.5t-61 121.5q0 93 64 117t163 24q14 0 29 -0.5t30 -1.5q22 -1 44 -4.5t42 -9.5q14 -4 24 -12.5t17 -19.5v56q0 86 -30 107t-137 21
q-10 0 -24 -0.5t-26 -1.5q-19 -1 -35 -5t-28 -11t-17 -17.5t-6 -22.5q-2 -3 -2 -6.5v-6.5v-6.5t2 -7.5zM111 148q0 -61 31 -80.5t104 -19.5h26t27 1q53 2 96.5 18.5t43.5 68.5q0 63 -47.5 77t-113.5 14h-21h-23.5t-25.5 -1q-21 -2 -41.5 -6.5t-34.5 -14.5q-10 -6 -14.5 -16
t-5.5 -21q-1 -5 -1 -10v-10zM284 500q-38 0 -67 23t-29 54t29 53.5t67 22.5q39 0 67 -22.5t28 -53.5t-28 -54t-67 -23zM284 533q22 0 38 13t16 31q0 17 -16 30t-38 13t-38.5 -13t-16.5 -30q0 -18 16.5 -31t38.5 -13z" />
    <glyph glyph-name="ae" unicode="&#xe6;" horiz-adv-x="992" 
d="M955 225h-415v-4.5v-5.5q0 -8 0.5 -16.5t0.5 -16.5q1 -22 4.5 -43.5t10.5 -42.5q8 -20 26 -29t42 -13q11 -1 23 -2t23 -1q11 -1 23 -1h23q63 0 106.5 10t43.5 69v12h90v-4.5t1 -5.5v-4.5v-5.5q0 -84 -70 -105.5t-153 -22.5h-14h-13h-14.5h-13.5q-60 2 -112.5 15.5
t-76.5 62.5q-21 -44 -70 -59t-103 -17q-10 -1 -20 -1h-20q-101 0 -172 24.5t-71 118.5q0 89 60 115.5t158 26.5q37 0 71 -1.5t68 -9.5q21 -5 35 -14.5t26 -22.5v79q0 80 -40 95.5t-132 15.5q-53 0 -94 -9t-41 -61v-11h-90q9 93 62.5 112.5t156.5 19.5h33.5t34.5 -1
q30 -1 59.5 -5.5t57.5 -14.5q16 -5 25.5 -15t15.5 -23q21 30 58.5 42.5t78.5 16.5q18 1 35 1.5t32 0.5q178 0 214.5 -60.5t36.5 -188.5zM122 145q0 -70 44.5 -83.5t119.5 -13.5q65 0 116.5 14.5t51.5 76.5q0 5 -1 10.5t-2 10.5q-2 12 -8.5 24t-18.5 19q-15 9 -37 13t-46 6
q-20 1 -38.5 1.5t-33.5 0.5q-58 0 -102.5 -11.5t-44.5 -67.5zM869 284q-2 78 -29.5 107t-130.5 29h-26.5t-27.5 -1q-23 -2 -44.5 -7.5t-38.5 -17.5q-17 -14 -23.5 -33.5t-7.5 -39.5q-1 -5 -1 -10.5v-10.5q0 -4 -0.5 -8t-0.5 -8h330z" />
    <glyph glyph-name="ccedilla" unicode="&#xe7;" horiz-adv-x="543" 
d="M265 -35l59 -27l-85 -95l-48 20zM440 169h86q0 -108 -55.5 -140.5t-189.5 -32.5q-185 0 -221.5 60t-36.5 192q0 119 51 171.5t206 52.5q96 0 166 -25t70 -117v-4v-4q-1 -2 -1 -4v-4h-85q0 67 -35 84.5t-114 17.5q-113 0 -140 -33.5t-27 -125.5v-48q0 -79 22.5 -118
t136.5 -39q97 0 132 18.5t35 98.5z" />
    <glyph glyph-name="egrave" unicode="&#xe8;" horiz-adv-x="554" 
d="M443 142h90q0 -103 -69 -125t-180 -22q-164 0 -212.5 50t-48.5 177q0 122 37.5 187t211.5 65q163 0 211.5 -44t49.5 -174v-35h-420q0 -78 20.5 -125t138.5 -47h23h27.5t30.5 2q19 1 36.5 5t29.5 11q13 7 17 18.5t6 23.5q1 4 1 9v9v15zM445 275q0 87 -25.5 116t-140.5 29
q-101 0 -133 -30t-32 -115h331zM218 660l165 -100l-29 -36l-180 88z" />
    <glyph glyph-name="eacute" unicode="&#xe9;" horiz-adv-x="554" 
d="M441 142h90q0 -103 -69 -125t-180 -22q-164 0 -212.5 50t-48.5 177q0 122 37.5 187t211.5 65q163 0 211.5 -44t49.5 -174v-35h-420q0 -78 20.5 -125t138.5 -47h23h27.5t30.5 2q19 1 36.5 5t29.5 11q13 7 17 18.5t6 23.5q1 4 1 9v9v15zM443 275q0 87 -25.5 116t-140.5 29
q-101 0 -133 -30t-32 -115h331zM337 660l44 -48l-179 -88l-30 36z" />
    <glyph glyph-name="ecircumflex" unicode="&#xea;" horiz-adv-x="563" 
d="M447 142h90q0 -103 -69 -125t-180 -22q-164 0 -212.5 50t-48.5 177q0 122 37.5 187t211.5 65q163 0 211.5 -44t49.5 -174v-35h-420q0 -78 20.5 -125t138.5 -47h23h27.5t30.5 2q19 1 36.5 5t29.5 11q13 7 17 18.5t6 23.5q1 4 1 9v9v15zM449 275q0 87 -25.5 116t-140.5 29
q-101 0 -133 -30t-32 -115h331zM284 654l192 -95l-27 -38l-165 61l-172 -61l-24 38z" />
    <glyph glyph-name="edieresis" unicode="&#xeb;" horiz-adv-x="563" 
d="M447 142h90q0 -103 -69 -125t-180 -22q-164 0 -212.5 50t-48.5 177q0 122 37.5 187t211.5 65q163 0 211.5 -44t49.5 -174v-35h-420q0 -78 20.5 -125t138.5 -47h23h27.5t30.5 2q19 1 36.5 5t29.5 11q13 7 17 18.5t6 23.5q1 4 1 9v9v15zM449 275q0 87 -25.5 116t-140.5 29
q-101 0 -133 -30t-32 -115h331zM219 581v-66h-97v66h97zM442 581v-66h-99v66h99z" />
    <glyph glyph-name="igrave" unicode="&#xec;" horiz-adv-x="232" 
d="M162 467v-467h-89v467h89zM57 660l165 -100l-29 -36l-180 88z" />
    <glyph glyph-name="iacute" unicode="&#xed;" horiz-adv-x="231" 
d="M158 467v-467h-89v467h89zM174 660l44 -48l-179 -88l-30 36z" />
    <glyph glyph-name="icircumflex" unicode="&#xee;" horiz-adv-x="407" 
d="M247 467v-467h-89v467h89zM205 654l192 -95l-27 -38l-165 61l-172 -61l-24 38z" />
    <glyph glyph-name="idieresis" unicode="&#xef;" horiz-adv-x="369" 
d="M229 467v-467h-89v467h89zM121 580v-66h-97v66h97zM344 580v-66h-99v66h99z" />
    <glyph glyph-name="eth" unicode="&#xf0;" horiz-adv-x="610" 
d="M122 645l18 30q14 -2 32 -7t37 -11q8 -3 17 -6l18 -6q11 -4 22 -8.5t19 -8.5l115 67l25 -27l-98 -56q127 -65 193.5 -153.5t66.5 -211.5q0 -103 -73.5 -181.5t-212.5 -78.5q-134 0 -206.5 74t-72.5 174q0 96 68.5 167.5t196.5 71.5q9 0 17 -0.5t17 -1.5q34 -5 66 -17.5
t55 -30.5q-3 6 -7 11.5t-9 11.5q-25 35 -53 63t-68 54q-8 5 -15.5 9.5t-14.5 9.5l-115 -68l-24 28l101 59q-27 13 -56 24t-59 19zM316 435q-107 0 -155.5 -61.5t-48.5 -140.5v-6.5v-7.5q4 -68 49.5 -124.5t142.5 -56.5q100 0 143.5 58t48.5 127q1 6 1 12.5v12.5v6.5v7.5
q-3 65 -44.5 119t-136.5 54z" />
    <glyph glyph-name="ntilde" unicode="&#xf1;" horiz-adv-x="558" 
d="M33 467h81v-60q34 43 86.5 56.5t112.5 13.5q118 0 165.5 -36.5t47.5 -131.5v-309h-88v303q0 70 -27.5 93t-116.5 23q-84 0 -129 -31t-45 -102v-286h-87v467zM421 612l48 -24q0 -1 -0.5 -1.5t-2.5 -1.5q-18 -24 -45.5 -44t-66.5 -20q-21 0 -41 6t-39 13q-1 0 -2.5 0.5
t-2.5 1.5q-19 6 -37 11.5t-38 5.5q-19 0 -29.5 -9.5t-19.5 -21.5q-1 -1 -1.5 -2.5t-2.5 -2.5l-50 22q17 24 40 44.5t60 22.5q23 0 43 -6t40 -13q19 -8 39 -14t42 -6q20 0 35 10t25 22q3 2 4 3.5t2 3.5z" />
    <glyph glyph-name="ograve" unicode="&#xf2;" horiz-adv-x="562" 
d="M23 246q0 119 44.5 174t204.5 55q168 0 218 -46.5t50 -178.5q0 -115 -31 -186t-211 -71q-156 0 -215.5 39t-59.5 170v44zM113 247v-39v-21.5t2 -22.5q2 -29 9.5 -55t23.5 -40q14 -10 34 -14t43 -5h9h9h40q77 0 117.5 17t45.5 83q1 14 1.5 27t0.5 27q2 13 2 26.5v26.5
q0 86 -20 123t-128 37h-19q-113 0 -141.5 -28t-28.5 -127v-15zM221 660l165 -100l-29 -36l-180 88z" />
    <glyph glyph-name="oacute" unicode="&#xf3;" horiz-adv-x="562" 
d="M22 246q0 119 44.5 174t204.5 55q168 0 218 -46.5t50 -178.5q0 -115 -31 -186t-211 -71q-156 0 -215.5 39t-59.5 170v44zM112 247v-39v-21.5t2 -22.5q2 -29 9.5 -55t23.5 -40q14 -10 34 -14t43 -5h9h9h40q77 0 117.5 17t45.5 83q1 14 1.5 27t0.5 27q2 13 2 26.5v26.5
q0 86 -20 123t-128 37h-19q-113 0 -141.5 -28t-28.5 -127v-15zM341 660l44 -48l-179 -88l-30 36z" />
    <glyph glyph-name="ocircumflex" unicode="&#xf4;" horiz-adv-x="571" 
d="M27 246q0 119 44.5 174t204.5 55q168 0 218 -46.5t50 -178.5q0 -115 -31 -186t-211 -71q-156 0 -215.5 39t-59.5 170v44zM117 247v-39v-21.5t2 -22.5q2 -29 9.5 -55t23.5 -40q14 -10 34 -14t43 -5h9h9h40q77 0 117.5 17t45.5 83q1 14 1.5 27t0.5 27q2 13 2 26.5v26.5
q0 86 -20 123t-128 37h-19q-113 0 -141.5 -28t-28.5 -127v-15zM289 654l191 -95l-26 -38l-165 61l-173 -61l-24 38z" />
    <glyph glyph-name="otilde" unicode="&#xf5;" horiz-adv-x="574" 
d="M28 246q0 119 44.5 174t204.5 55q168 0 218 -46.5t50 -178.5q0 -115 -31 -186t-211 -71q-156 0 -215.5 39t-59.5 170v44zM118 247v-39v-21.5t2 -22.5q2 -29 9.5 -55t23.5 -40q14 -10 34 -14t43 -5h9h9h40q77 0 117.5 17t45.5 83q1 14 1.5 27t0.5 27q2 13 2 26.5v26.5
q0 86 -20 123t-128 37h-19q-113 0 -141.5 -28t-28.5 -127v-15zM428 612l48 -24q0 -1 -0.5 -1.5t-2.5 -1.5q-18 -24 -45.5 -44t-66.5 -20q-21 0 -41 6t-39 13q-1 0 -2.5 0.5t-2.5 1.5q-19 6 -37 11.5t-38 5.5q-19 0 -29.5 -9.5t-19.5 -21.5q-1 -1 -1.5 -2.5t-2.5 -2.5l-50 22
q17 24 40 44.5t60 22.5q23 0 43 -6t40 -13q19 -8 39 -14t42 -6q20 0 35 10t25 22q3 2 4 3.5t2 3.5z" />
    <glyph glyph-name="odieresis" unicode="&#xf6;" horiz-adv-x="573" 
d="M28 246q0 119 44.5 174t204.5 55q168 0 218 -46.5t50 -178.5q0 -115 -31 -186t-211 -71q-156 0 -215.5 39t-59.5 170v44zM118 247v-39v-21.5t2 -22.5q2 -29 9.5 -55t23.5 -40q14 -10 34 -14t43 -5h9h9h40q77 0 117.5 17t45.5 83q1 14 1.5 27t0.5 27q2 13 2 26.5v26.5
q0 86 -20 123t-128 37h-19q-113 0 -141.5 -28t-28.5 -127v-15zM225 581v-66h-98v66h98zM447 581v-66h-99v66h99z" />
    <glyph glyph-name="divide" unicode="&#xf7;" horiz-adv-x="576" 
d="M288 195q20 0 34.5 -11.5t14.5 -27.5t-14.5 -27.5t-34.5 -11.5t-34.5 11.5t-14.5 27.5t14.5 27.5t34.5 11.5zM4 361h568v-41h-568v41zM288 564q20 0 34.5 -11.5t14.5 -27.5t-14.5 -27.5t-34.5 -11.5t-34.5 11.5t-14.5 27.5t14.5 27.5t34.5 11.5z" />
    <glyph glyph-name="oslash" unicode="&#xf8;" horiz-adv-x="623" 
d="M592 477v-62l-41 -31q13 -25 16.5 -51.5t3.5 -53.5v-42v-20t-2 -21q-1 -30 -6 -60.5t-17 -59.5q-22 -49 -73 -63.5t-109 -16.5q-13 -1 -26.5 -1h-26.5q-19 0 -39 0.5t-41 2.5q-37 3 -71 12.5t-58 29.5l-70 -56v62l46 34q-5 10 -8.5 19.5t-6.5 19.5q-2 17 -4 33.5t-2 33.5
q-1 16 -1 33v33q0 122 45.5 173t202.5 51h24.5t23.5 -1q49 -1 94.5 -10t81.5 -37zM163 86q11 -17 35 -24t50 -9q13 -1 24.5 -1.5t23.5 -0.5q103 0 139.5 21t42.5 104q3 18 3.5 36t0.5 36q0 20 -1.5 40.5t-4.5 39.5zM466 380q-5 8 -13.5 15t-19.5 11q-20 7 -41 9t-44 3h-10.5
h-10.5h-34q-84 0 -112 -18.5t-34 -97.5q-1 -21 -2.5 -42.5t-1.5 -43.5q0 -10 0.5 -20t2.5 -20q0 -10 1.5 -20t3.5 -20z" />
    <glyph glyph-name="ugrave" unicode="&#xf9;" horiz-adv-x="535" 
d="M509 467v-467h-81v62q-37 -45 -85.5 -56.5t-114.5 -11.5q-105 0 -153.5 39t-48.5 123v311h88v-311q0 -61 26.5 -83t106.5 -22q104 0 139 31t35 110v275h88zM207 659l165 -100l-29 -36l-180 88z" />
    <glyph glyph-name="uacute" unicode="&#xfa;" horiz-adv-x="535" 
d="M507 467v-467h-81v62q-37 -45 -85.5 -56.5t-114.5 -11.5q-105 0 -153.5 39t-48.5 123v311h88v-311q0 -61 26.5 -83t106.5 -22q104 0 139 31t35 110v275h88zM326 659l44 -48l-179 -88l-30 36z" />
    <glyph glyph-name="ucircumflex" unicode="&#xfb;" horiz-adv-x="545" 
d="M513 467v-467h-81v62q-37 -45 -85.5 -56.5t-114.5 -11.5q-105 0 -153.5 39t-48.5 123v311h88v-311q0 -61 26.5 -83t106.5 -22q104 0 139 31t35 110v275h88zM273 654l192 -95l-27 -38l-165 61l-172 -61l-24 38z" />
    <glyph glyph-name="udieresis" unicode="&#xfc;" horiz-adv-x="547" 
d="M514 467v-467h-81v62q-37 -45 -85.5 -56.5t-114.5 -11.5q-105 0 -153.5 39t-48.5 123v311h88v-311q0 -61 26.5 -83t106.5 -22q104 0 139 31t35 110v275h88zM209 580v-66h-97v66h97zM432 580v-66h-99v66h99z" />
    <glyph glyph-name="thorn" unicode="&#xfe;" horiz-adv-x="608" 
d="M124 666v-299q34 58 86 91.5t136 33.5q131 0 194.5 -78t63.5 -173v-2.5v-3.5q-1 -94 -64 -171.5t-196 -77.5q-72 0 -131.5 31t-84.5 85l-1 -266h-88v830h85zM323 433q-95 0 -143.5 -56.5t-53.5 -124.5v-7.5v-6.5v-8v-8q5 -68 49 -125t143 -57q108 0 152 62t44 137v8v8
q-5 67 -50.5 122.5t-140.5 55.5z" />
    <glyph glyph-name="ydieresis" unicode="&#xff;" horiz-adv-x="519" 
d="M506 467l-165 -494q-2 -6 -4 -13l-4 -14q-22 -59 -62.5 -107.5t-127.5 -48.5q-10 0 -21 1.5t-21 3.5v56q4 0 8.5 -0.5t8.5 -0.5q3 -1 7.5 -1h8.5q45 0 68 28.5t34 62.5q7 17 11 32.5t8 27.5h-31l-211 467h88l183 -416l132 416h90zM198 580v-66h-98v66h98zM420 580v-66
h-99v66h99z" />
    <glyph glyph-name="LDO" horiz-adv-x="718" 
d="M342 162q0 -2 -1.5 -6t-1.5 -5v-7h-4v10q4 4 7 8zM287 144q4 7 4 18h15q-7 0 -7 -8q0 -25 3 -32h4q2 5 7 14h4v-14h-11q-1 0 -2.5 1t-2.5 3t-2 3h-8q0 1 -2 6t-2 9zM373 110v15q3 0 5 1.5t3 2.5v-13q2 -1 4 -2.5t6 -3.5l1 -16q-6 7 -19 16zM88 627q24 7 64 7q25 0 37 -7
q10 -7 34 -7q19 9 22 18q29 0 33 24l9 4q2 3 7 5q5 0 5 2q5 2 7.5 6.5t10.5 4.5q1 3 7 6q7 2 7 5q32 0 32 18q8 0 13 6q4 7 12 7q1 2 9.5 5t8.5 6q7 0 10 3q12 8 16 8l9 4q7 2 7 7q11 0 22 4q11 3 19 3q0 4 7 8q7 2 8 3l89 19l42 -4l15 -8q7 -3 11 -7q10 -7 31 -18l7 -42
q-42 0 -42 5q-5 0 -14 4t-11 4q0 4 -1.5 5.5t-6.5 4.5h-68q-3 -3 -7 -10q-7 0 -21 -4t-21 -4q-13 -9 -18.5 -9t-14.5 -3q-4 0 -8 -6l-6 -6q-10 -3 -8 -3h-4q-1 -3 -8.5 -5t-9 -2t-4 -2t-6.5 -5t-6 -5q-11 0 -15 -10q-5 0 -6 -2.5t-1 -9.5q-6 0 -13.5 -3.5t-8 -3.5t-6.5 -4.5
t-14 -4.5q-2 -1 -7 -2t-8 -6q-2 -1 -4 -4q-2 -5 -3 -6q-11 0 -11 -8q-4 0 -7 -1.5t-6 -4.5l-5 -5q-15 0 -15 -11q-5 0 -13 -7v-11q-4 -3 -6.5 -4t-4.5 -5v-15q6 -7 11 -7v-48q-6 0 -11 -9v-11q-2 -2 -4 -3q-3 -2 -7 -4v-22q-6 -3 -7 -4.5t-1 -10.5q0 -11 -3 -11l-7 -7
q-9 -4 -10.5 -6t-1.5 -10q-9 -4 -15 -8t-8 -11q-11 -11 -44 -11q-17 11 -35 11q-2 3 -7 11h-15q-3 0 -9 4q-7 4 -13 4q0 11 -11 16q0 7 -4 11q-10 0 -21 -1l-11 -1q-4 0 -11 7q-3 2 -6 2v55q2 3 5 5l6 4l4 83q1 0 2.5 1t2.5 3t2 3v15q5 2 6 6t5 4q0 1 10 4.5t10 7.5
q21 7 26 7zM384 132q-4 5 -7 7q-4 1 -15 1v18q6 -6 18 -14q0 -8 4 -12zM399 132q3 -3 3 -7q-3 3 -10 7h7zM402 125h7q5 2 12 10q6 9 10 9q-1 -4 -3.5 -6t-6.5 -6v-14l6 -4t4 -4q-4 0 -10 -7v-13l7 -7h17q1 -6 4 -10q2 -6 18 -12q3 11 3 22q-9 11 -22 11v31q3 0 11 7l-6 6
q-3 2 -5 6q2 -1 12 -5q6 -2 17 -5q6 -2 19 -2v-22q3 -2 6.5 -3.5t4.5 -3.5q0 -16 4 -20h9q3 3 3 14v6q9 0 13 1.5t9 5.5q-7 8 -11 8v14q3 0 11 8v26q-3 2 -6 3.5t-5 5.5q0 8 -1.5 10t-9.5 5q7 0 12.5 5t6.5 5v-10q0 -8 7 -8q3 -10 4 -11.5t7 -4.5q0 -15 8 -22h3q2 2 4 8t3 6
q20 7 20 24q5 0 18 8v-58h-7q-3 -3 -3 -14q-4 -1 -14 -8q10 -7 32 -7q0 -5 -2 -6.5t-5 -6.5v-36q-4 2 -5.5 3.5t-2 3.5t-3.5 7h-20q0 -2 -2 -6q-2 -6 -2 -8q-4 0 -11 -8q7 0 11 -3v-7q-2 -2 -5 -3.5t-6 -4.5v-16q-19 0 -22 -8v-7l1 -1q0 1 -4 1q0 3 -2 8t-2 7q-18 0 -23 -8
v-7q11 -11 22 -11v-7h-7q-12 -5 -21 -7q-4 -1 -10 -1v15q7 0 7 7q0 35 -3 43h-3q-8 -8 -8 -39q-7 0 -11 -4v-14h-26l-4 -8v-38q-10 0 -24 -4q9 -7 14 -7v-18q-6 2 -6 6q0 3 -7 5h-4q-5 -2 -6 -5q-2 -4 -5 -6v18q3 0 11 7q0 57 -7 64h-4q-1 -1 -3 -2l-1 -1l4 3q-4 4 -11 4
q0 31 -7 39h-4q-6 -3 -5 -21q1 -34 1 -31v-55q0 -1 4 -3t4 -4v-7q0 -1 -3.5 -4.5t-3.5 -6.5h-29v25q0 2 -1 3l-4 2q-2 1 -5 3q-2 7 -7 16h-4q-7 -7 -7 -24q3 -2 7 -3l4 -4v-7q-5 -4 -15 -11q3 0 11 11v7q0 7 -18 7q-15 0 -18 -7v-11q0 4 -7 4q0 10 -5 15q-5 4 -16 7v16l-7 4
h-15v14q-6 8 -11 8q-4 12 -22 18v31q11 3 11 15q2 0 5.5 1.5t5.5 1.5q0 19 -4 22h-7q-3 -3 -3 -14q-5 0 -19 -8v44q4 0 7 2t4 2v38h18v-14q-5 0 -7 -4q-2 -2 -3 -4q29 0 36 8v7l-4 4l4 -4h17q0 -31 3 -35h-9l-7 -7v-15q-6 -2 -7 -3.5t-4 -10.5q-4 0 -11 -8h35v-10
q-9 -4 -13 -8q0 -11 7 -24q10 4 21 17v22h7q1 -12 3 -31h8q4 3 4 16q18 0 21 8v7l-7 7l7 4v14q3 -2 8 -3.5t7 -3.5q0 -8 1 -9.5t5 -8.5q27 0 32 11v9h-1q1 -2 5 -2q6 8 6.5 11t0.5 11q3 0 11 7v20q-7 8 -11 8q0 2 -2 4t-2 3zM616 129q2 -1 3 -2l1 -2h8q0 -3 -4 -7h-3
q-5 4 -5 11zM628 125q0 4 3 7q0 -2 -1 -3q-2 -3 -2 -4zM631 132v50q4 0 11 8v10h15l4 8v22h7v-90q-1 -2 -5 -3q-3 -2 -6 -5v-14l-14 -8q0 19 -8 22h-4zM455 -67q2 -1 3 -2l1 -2v3q-1 1 -4 1zM459 -71q4 -1 9 -8l6 -6q0 7 -7 14h-8zM467 -67q3 9 3 31h15q2 -2 3 -4q0 -4 4 -6
q2 -1 4 -1q-2 -2 -5 -3.5t-6 -3.5v-9q0 -5 -3 -5q-3 1 -6 1h-9zM413 -10q-1 -5 -1 -15v-12q0 -20 -2 -26h-4v49q3 0 7 4zM306 -89l3 -4q0 3 -1 4h-2zM309 -93q4 0 8 -3q-8 0 -8 3zM263 129q-3 0 -7 3v12l-7 7h-15v15q11 0 11 9v7q-1 3 -5.5 5t-5.5 3v10q-6 8 -11 8
q3 0 7 2.5t4 4.5v7q0 3 -4 4q-5 2 -7 4v34h8v-16l3 -7h15v-33q-8 0 -8 -8v-7q0 -3 8 -3v-24q2 -1 6 -4t5 -4v-26zM295 90q4 4 4 20h13q-2 -1 -3.5 -3t-2.5 -4v-31q-1 1 -3 2.5t-4 1.5q0 7 -4 14zM306 72q9 -4 11 -4h-8q-1 1 -1 2zM317 68q1 7 7 15v-15h-7zM530 237
q2 -2 3 -4l4 -2q2 -1 4 -1l1 -15h-18q0 8 -1.5 10t-11.5 5q0 34 -4 42h-3q-4 -2 -5 -8q-2 -6 -3 -7h-4v15h15q1 6 4 14h9v-14q8 -8 11 -8zM510 305q0 7 -6 7q-8 -7 -12 -7v14h15q0 -3 1.5 -8t1.5 -6zM299 290h-12q0 -2 -1.5 -6t-1.5 -5q-27 -7 -28 -7v25h15l7 8v14
q27 0 31 20q18 5 22 22h15q0 -29 7 -34h4q6 5 6 20q7 4 10 7v15q9 -8 11 -8h8q-1 0 7 8q0 -18 7 -22h4l3.5 7l3.5 7h15q1 -5 4 -11q1 -1 9 -3q-14 0 -14 -8v-7q4 -5 36 -5v-15h-39q-2 2 -3 8q-3 6 -4 7h-4q-2 -5 -7 -15h-4q-2 3 -7 15h-15q0 -6 -3 -15h-8q0 4 -3 15h-28
q-2 -6 -7 -15q-10 0 -20 -8z" />
    <glyph glyph-name="Lslash" unicode="&#x141;" horiz-adv-x="715" 
d="M235 75h478v-75h-584l-1 254l-105 -79v86l105 78l1 411h106l-1 -339l196 154v-85l-196 -154z" />
    <glyph glyph-name="lslash" unicode="&#x142;" horiz-adv-x="282" 
d="M191 0h-99v363l-81 -64v72l81 63v316h99v-253l80 64v-70l-80 -64v-427z" />
    <glyph glyph-name="caron" unicode="&#x2c7;" horiz-adv-x="473" 
d="M18 693l30 43l185 -76l195 76l27 -43l-222 -107z" />
    <glyph glyph-name="breve" unicode="&#x2d8;" horiz-adv-x="471" 
d="M91 737q10 -42 50.5 -68.5t93.5 -26.5q52 0 93 27t51 68h67q-4 -32 -22.5 -59.5t-46.5 -48t-65 -32.5t-77 -12t-76.5 12t-64.5 32.5t-46.5 48t-22.5 59.5h66z" />
    <glyph glyph-name="dotaccent" unicode="&#x2d9;" horiz-adv-x="191" 
d="M149 579h-110v74h110v-74z" />
    <glyph glyph-name="ring" unicode="&#x2da;" horiz-adv-x="272" 
d="M27 649q0 18 9 33.5t23.5 27.5t33.5 19t42 7q22 0 42 -7t34.5 -19t23.5 -27.5t9 -33.5q0 -36 -32 -61.5t-77 -25.5q-23 0 -42 7t-33.5 18.5t-23.5 27.5t-9 34zM75 649q0 -20 17.5 -34.5t42.5 -14.5t43 14.5t18 34.5t-18 34.5t-43 14.5t-42.5 -14.5t-17.5 -34.5z" />
    <glyph glyph-name="ogonek" unicode="&#x2db;" horiz-adv-x="244" 
d="M191 0q-14 -6 -31.5 -15.5t-33 -21.5t-26.5 -25.5t-11 -27.5q0 -29 25 -41t58 -12q12 0 24.5 1.5t24.5 6.5v-49q-30 -9 -64 -9q-25 0 -49 5.5t-42.5 16t-30 27t-11.5 38.5q0 38 28.5 63.5t66.5 42.5h72z" />
    <glyph glyph-name="hungarumlaut" unicode="&#x2dd;" horiz-adv-x="462" 
d="M246 699l-188 -116l-38 38l170 128zM443 699l-187 -116l-39 38l170 128z" />
    <glyph glyph-name="fraction" unicode="&#x2044;" horiz-adv-x="724" 
d="M86 0h-84l632 750h88z" />
    <glyph glyph-name="fi" unicode="&#xfb01;" horiz-adv-x="595" 
d="M559 0h-99v525h99v-525zM390 525v-64h-173v-461h-99v461h-100v64h100v63q0 48 10.5 80t35 51.5t65 28t100.5 8.5q15 0 30.5 -0.5t30.5 -1.5v-64q-15 1 -30.5 1.5t-30.5 0.5q-37 0 -59 -5t-34 -16.5t-15.5 -30t-3.5 -44.5v-71h173zM559 663h-99v87h99v-87z" />
    <glyph glyph-name="fl" unicode="&#xfb02;" horiz-adv-x="605" 
d="M391 525v-64h-174v-461h-99v461h-100v64h100v63q0 48 11 80t35 51.5t65 28t101 8.5q15 0 30.5 -0.5t30.5 -1.5v-64q-15 1 -30.5 1.5t-30.5 0.5q-38 0 -60 -5t-33.5 -16.5t-15.5 -30t-4 -44.5v-71h174zM565 0h-99v750h99v-750z" />
    <glyph glyph-name="dotlessi" unicode="&#x131;" horiz-adv-x="267" 
d="M227 500v-400h-62v355l-123 -108l-42 31l143 122h84z" />
    <glyph glyph-name="periodcentered" unicode="&#xb7;" horiz-adv-x="180" 
d="M138 348v-91h-99v91h99z" />
    <glyph glyph-name="Ograve" unicode="&#xd2;" horiz-adv-x="704" 
d="M25 257v104q0 136 34 224.5t237 88.5h41q169 0 255 -34t86 -191v-119q0 -59 -2 -118q-4 -122 -63.5 -170.5t-216.5 -48.5h-38q-10 1 -18 1h-18q-141 0 -214 35t-82 162q-1 33 -1 66zM120 325l1 -107q2 -97 38 -129t162 -32q141 0 200 23.5t62 145.5q0 27 1 54.5t1 55.5
v110q0 123 -54.5 144t-188.5 21h-31q-110 0 -148 -27t-41 -136zM298 846l165 -100l-28 -36l-180 88z" />
    <glyph glyph-name="Yacute" unicode="&#xdd;" horiz-adv-x="728" 
d="M721 667l-315 -388v-279h-93v279l-307 388h109l248 -312l247 312h111zM454 846l44 -48l-179 -88l-30 36z" />
    <glyph glyph-name="yacute" unicode="&#xfd;" horiz-adv-x="514" 
d="M501 467l-165 -494q-2 -6 -4 -13l-4 -14q-22 -59 -62.5 -107.5t-127.5 -48.5q-10 0 -21 1.5t-21 3.5v56q4 0 8.5 -0.5t8.5 -0.5q3 -1 7.5 -1h8.5q45 0 68 28.5t34 62.5q7 17 11 32.5t8 27.5h-31l-211 467h88l183 -416l132 416h90zM389 660l44 -48l-179 -88l-30 36z" />
    <glyph glyph-name="minus" unicode="&#x2212;" horiz-adv-x="710" 
d="M39 279h632v-52h-632v52z" />
    <glyph glyph-name="numbersign" unicode="#" horiz-adv-x="623" 
d="M418 232l-35 -199h-51l35 199h-148l-35 -199h-52l35 199h-155l7 40h155l20 112h-156l8 41h155l32 183h53l-33 -183h148l31 183h52l-32 -183h160l-8 -41h-158l-20 -112h158l-6 -40h-160zM393 384h-147l-19 -112h146z" />
    <glyph glyph-name="exclam" unicode="!" horiz-adv-x="167" 
d="M134 91v-91h-98v91h98zM133 667l-12 -483h-80l-10 483h102z" />
    <glyph glyph-name="quotedbl" unicode="&#x22;" horiz-adv-x="368" 
d="M127 400h-88v267h104zM328 400h-89v267h89v-267z" />
    </font>
</defs>
</svg>
